<?xml version="1.0" encoding="UTF-8" standalone="no"?><!-- Generator: Gravit.io --><svg xmlns="http://www.w3.org/2000/svg" xmlns:xlink="http://www.w3.org/1999/xlink" style="isolation:isolate" viewBox="0 0 1920 1080" width="1920pt" height="1080pt"><defs><clipPath id="_clipPath_jRbfpcGLIHKtSL2en3sOEgi6562o6H2S"><rect width="1920" height="1080"/></clipPath></defs><g clip-path="url(#_clipPath_jRbfpcGLIHKtSL2en3sOEgi6562o6H2S)"><g><g><path d=" M 1061.029 769.336 L 1061.029 934.533 L 809.029 934.533 L 809.029 781.726 L 833.359 521.541 L 830.462 552.515 L 1044.008 552.515 L 1039.631 496.761 L 1061.029 769.336 L 1061.029 769.336 L 1061.029 769.336 Z " fill="rgb(187,135,85)"/><rect x="812.441" y="920.761" width="244.177" height="3" transform="matrix(1,0,0,1,0,0)" fill="rgb(140,98,61)"/><rect x="809.508" y="902.761" width="244.177" height="3" transform="matrix(1,0,0,1,0,0)" fill="rgb(140,98,61)"/><rect x="809.508" y="884.761" width="244.177" height="3" transform="matrix(1,0,0,1,0,0)" fill="rgb(140,98,61)"/><rect x="809.029" y="867.761" width="244.177" height="3" transform="matrix(1,0,0,1,0,0)" fill="rgb(140,98,61)"/><rect x="807.988" y="848.761" width="244.177" height="3" transform="matrix(1,0,0,1,0,0)" fill="rgb(140,98,61)"/><rect x="809.029" y="829.761" width="244.177" height="3" transform="matrix(1,0,0,1,0,0)" fill="rgb(140,98,61)"/><rect x="807.988" y="812.761" width="244.177" height="3" transform="matrix(1,0,0,1,0,0)" fill="rgb(140,98,61)"/><rect x="809.508" y="794.761" width="244.177" height="3" transform="matrix(1,0,0,1,0,0)" fill="rgb(140,98,61)"/><rect x="807.988" y="778.726" width="244.177" height="3" transform="matrix(1,0,0,1,0,0)" fill="rgb(140,98,61)"/><rect x="806.853" y="761.761" width="244.177" height="3" transform="matrix(1,0,0,1,0,0)" fill="rgb(140,98,61)"/><rect x="806.853" y="744.363" width="244.177" height="3" transform="matrix(1,0,0,1,0,0)" fill="rgb(140,98,61)"/><rect x="809.508" y="729.761" width="238.521" height="3" transform="matrix(1,0,0,1,0,0)" fill="rgb(140,98,61)"/><rect x="817.05" y="714.147" width="228.323" height="3" transform="matrix(1,0,0,1,0,0)" fill="rgb(140,98,61)"/><rect x="817.435" y="694.761" width="228.323" height="3" transform="matrix(1,0,0,1,0,0)" fill="rgb(140,98,61)"/><rect x="816.956" y="678.761" width="228.323" height="3" transform="matrix(1,0,0,1,0,0)" fill="rgb(140,98,61)"/><rect x="816.956" y="662.761" width="228.323" height="3" transform="matrix(1,0,0,1,0,0)" fill="rgb(140,98,61)"/><rect x="817.435" y="644.761" width="228.323" height="3" transform="matrix(1,0,0,1,0,0)" fill="rgb(140,98,61)"/><rect x="816.956" y="625.761" width="228.323" height="3" transform="matrix(1,0,0,1,0,0)" fill="rgb(140,98,61)"/><rect x="815.914" y="604.761" width="228.323" height="3" transform="matrix(1,0,0,1,0,0)" fill="rgb(140,98,61)"/><rect x="816.956" y="589.761" width="228.323" height="3" transform="matrix(1,0,0,1,0,0)" fill="rgb(140,98,61)"/><rect x="817.435" y="573.761" width="228.323" height="3" transform="matrix(1,0,0,1,0,0)" fill="rgb(140,98,61)"/><rect x="1040.729" y="560.234" width="24.985" height="373.313" transform="matrix(0.997,-0.075,0.075,0.997,-53.06,81.11)" fill="rgb(98,72,47)"/><rect x="1040.762" y="561.118" width="1.393" height="373.313" transform="matrix(0.997,-0.075,0.075,0.997,-53.159,80.231)" fill="rgb(26,18,12)"/><rect x="802.576" y="561.724" width="24.985" height="373.313" transform="matrix(0.997,0.075,-0.075,0.997,58.435,-59.033)" fill="rgb(98,72,47)"/><rect x="825.701" y="562.592" width="1.829" height="373.313" transform="matrix(0.997,0.075,-0.075,0.997,58.533,-59.897)" fill="rgb(26,18,12)"/><g><rect x="894.326" y="840.449" width="80" height="94.045" transform="matrix(1,0,0,1,0,0)" fill="rgb(79,59,35)"/><path d=" M 877.678 819.984 L 893.665 819.327 C 897.525 819.168 900.788 822.174 900.946 826.034 L 905.374 933.831 L 875.399 935.062 L 870.972 827.265 C 870.813 823.405 873.818 820.142 877.678 819.984 Z " fill="rgb(98,72,47)"/><path d=" M 977.593 795.771 L 993.571 796.613 C 997.429 796.816 1000.396 800.114 1000.193 803.972 L 993.284 935.062 L 963.326 933.483 L 970.234 802.393 C 970.437 798.535 973.735 795.568 977.593 795.771 Z " fill="rgb(98,72,47)"/><path d=" M 901.029 827.741 L 995.948 827.741 C 999.856 827.741 1003.029 830.914 1003.029 834.822 L 1003.029 846.077 C 1003.029 849.985 999.856 853.158 995.948 853.158 L 901.029 853.158 L 901.029 827.741 L 901.029 827.741 L 901.029 827.741 Z " fill="rgb(98,72,47)"/><ellipse vector-effect="non-scaling-stroke" cx="954.8260570620516" cy="894.3350273014597" rx="3.5000000000001137" ry="3.558470135942116" fill="rgb(39,27,15)"/><path d=" M 952.326 894.335 C 952.326 893.212 953.222 892.301 954.326 892.301 C 955.43 892.301 956.326 893.212 956.326 894.335 C 956.326 895.457 955.43 896.368 954.326 896.368 C 953.222 896.368 952.326 895.457 952.326 894.335 Z " fill="rgb(57,44,30)"/><rect x="901.431" y="827.774" width="1.444" height="25.404" transform="matrix(0.999,-0.044,0.044,0.999,-36.108,40.51)" fill="rgb(68,49,34)"/><rect x="983.394" y="812.897" width="1.444" height="29.968" transform="matrix(-0.004,1,-1,-0.004,1815.927,-152.915)" fill="rgb(68,49,34)"/><rect x="981.253" y="838.268" width="1.444" height="30.251" transform="matrix(-0.004,1,-1,-0.004,1839.289,-125.16)" fill="rgb(68,49,34)"/><rect x="904.677" y="853.035" width="62.154" height="4.313" transform="matrix(1,0,0,1,0,0)" fill="rgb(26,18,12)"/><rect x="903.492" y="854.266" width="3.3" height="81.418" transform="matrix(1,-0.026,0.026,1,-22.956,23.828)" fill="rgb(26,18,12)"/><rect x="963.793" y="852.386" width="1" height="81.595" transform="matrix(0.998,0.059,-0.059,0.998,54.392,-55.351)" fill="rgb(26,18,12)"/></g><path d=" M 1152.062 561.591 L 1050.726 396.313 L 948.609 229.761 L 921.654 274.269 L 1095.18 561.591 L 1152.062 561.591 L 1152.062 561.591 L 1152.062 561.591 L 1152.062 561.591 Z " fill="rgb(0,0,0)"/><path d=" M 715.029 561.96 L 819.454 395.004 L 924.683 226.761 L 952.459 271.721 L 773.645 561.96 L 715.029 561.96 L 715.029 561.96 L 715.029 561.96 L 715.029 561.96 Z " fill="rgb(0,0,0)"/><path d=" M 763.374 532.761 L 936.997 287.761 L 1110.621 532.761 L 763.374 532.761 L 763.374 532.761 L 763.374 532.761 Z " fill="rgb(187,135,85)"/><rect x="787.029" y="514.761" width="286" height="3" transform="matrix(1,0,0,1,0,0)" fill="rgb(140,98,61)"/><rect x="809.508" y="490.761" width="260.521" height="3" transform="matrix(1,0,0,1,0,0)" fill="rgb(140,98,61)"/><rect x="817.435" y="465.761" width="228.323" height="3" transform="matrix(1,0,0,1,0,0)" fill="rgb(140,98,61)"/><rect x="815.914" y="441.761" width="228.323" height="3" transform="matrix(1,0,0,1,0,0)" fill="rgb(140,98,61)"/><rect x="814.779" y="415.261" width="228.323" height="3" transform="matrix(1,0,0,1,0,0)" fill="rgb(140,98,61)"/><rect x="833.359" y="389.761" width="199.67" height="3" transform="matrix(1,0,0,1,0,0)" fill="rgb(140,98,61)"/><rect x="860.029" y="362.761" width="158" height="3" transform="matrix(1,0,0,1,0,0)" fill="rgb(140,98,61)"/><rect x="870.966" y="335.761" width="120.064" height="3" transform="matrix(1,0,0,1,0,0)" fill="rgb(140,98,61)"/><path d=" M 719.962 563.761 L 808.834 418.82 L 898.39 272.761 L 922.029 311.793 L 769.848 563.761 L 719.962 563.761 L 719.962 563.761 L 719.962 563.761 L 719.962 563.761 Z " fill="rgb(108,80,56)"/><path d=" M 1149.062 563.761 L 1060.191 418.82 L 970.635 272.761 L 946.996 311.793 L 1099.177 563.761 L 1149.062 563.761 L 1149.062 563.761 L 1149.062 563.761 L 1149.062 563.761 Z " fill="rgb(108,80,56)"/><rect x="868.489" y="235.089" width="2.629" height="324.998" transform="matrix(0.855,0.519,-0.519,0.855,332.573,-393.625)" fill="rgb(26,18,12)"/><rect x="1006.464" y="247.14" width="1.45" height="324.998" transform="matrix(0.855,-0.519,0.519,0.855,-66.353,582.095)" fill="rgb(26,18,12)"/><path d=" M 749.894 532.761 L 721.029 563.761 L 721.029 563.761 L 934.912 563.761 L 1150.029 563.761 L 1150.029 563.761 L 1121.084 532.761 L 749.894 532.761 L 749.894 532.761 L 749.894 532.761 L 749.894 532.761 Z " fill="rgb(108,80,56)"/><g><rect x="902.992" y="659.274" width="70.135" height="72.461" transform="matrix(1,0,0,1,0,0)" fill="rgb(96,190,190)"/><rect x="936.405" y="657.151" width="4.562" height="76.834" transform="matrix(0.999,-0.047,0.047,0.999,-31.651,44.882)" fill="rgb(98,72,47)"/><rect x="936.225" y="657.366" width="4.562" height="76.813" transform="matrix(0.1,0.995,-0.995,0.1,1536.942,-307.606)" fill="rgb(98,72,47)"/><path d=" M 987.296 657.8 L 985.92 671.497 C 985.754 673.145 984.282 674.348 982.635 674.182 L 882.108 664.081 C 880.46 663.916 879.257 662.444 879.423 660.796 L 880.799 647.099 C 880.965 645.451 882.436 644.248 884.084 644.414 L 984.611 654.515 C 986.259 654.681 987.462 656.152 987.296 657.8 Z " fill="rgb(98,72,47)"/><rect x="938.765" y="622.741" width="1.33" height="92.902" transform="matrix(-0.1,0.995,-0.995,-0.1,1699.21,-198.611)" fill="rgb(68,49,34)"/><path d=" M 893.505 662.816 L 893.265 665.202 L 882.642 664.135 C 880.7 663.94 879.23 662.712 879.363 661.395 L 879.363 661.395 L 893.505 662.816 L 893.505 662.816 L 893.505 662.816 Z " fill="rgb(68,49,34)"/><path d=" M 896.127 634.126 L 909.856 634.126 C 911.522 634.126 912.875 635.479 912.875 637.145 L 912.875 742.761 C 912.875 744.417 911.531 745.761 909.875 745.761 L 896.108 745.761 C 894.453 745.761 893.108 744.417 893.108 742.761 L 893.108 637.145 C 893.108 635.479 894.461 634.126 896.127 634.126 Z " fill="rgb(98,72,47)"/><path d=" M 912.875 647.761 C 912.9 647.282 913.396 647.237 914.341 647.603 C 914.552 647.503 914.587 647.702 914.721 647.761 L 914.721 667.1 L 912.875 667.1 L 912.875 647.761 L 912.875 647.761 L 912.875 647.761 Z " fill="rgb(68,49,34)"/><path d=" M 987.013 719.97 L 987.991 739.712 L 895.547 744.291 C 893.893 744.372 892.484 743.096 892.402 741.443 L 891.722 727.717 C 891.64 726.05 892.926 724.63 894.593 724.547 L 987.013 719.97 L 987.013 719.97 L 987.013 719.97 Z " fill="rgb(98,72,47)"/><path d=" M 912.869 723.642 L 912.95 725.268 L 892.056 726.303 L 892.056 726.303 C 892.011 725.405 893.366 724.608 895.08 724.523 L 912.869 723.642 L 912.869 723.642 L 912.869 723.642 Z " fill="rgb(68,49,34)"/><path d=" M 966.244 622.816 L 980.01 622.816 C 981.666 622.816 983.01 624.161 983.01 625.816 L 983.01 728.735 C 983.01 730.391 981.666 731.735 980.01 731.735 C 979.762 731.735 973.174 731.735 966.244 731.735 C 964.588 731.735 963.244 730.391 963.244 728.735 L 963.244 625.816 C 963.244 624.161 964.588 622.816 966.244 622.816 Z " fill="rgb(98,72,47)"/><path d=" M 981.029 622.835 C 981.029 622.829 981.029 622.822 981.03 622.816 L 981.029 728.79 L 983.01 728.816 L 983.01 728.816 C 983.01 728.808 983.01 728.799 983.01 728.79 L 983.01 625.836 C 983.01 624.18 982.123 622.827 981.03 622.816 L 981.03 622.816 L 981.029 622.835 L 981.029 622.835 L 981.029 622.835 Z " fill="rgb(68,49,34)"/><rect x="962.459" y="652.565" width="0.785" height="19" transform="matrix(1,0,0,1,0,0)" fill="rgb(68,49,34)"/><path d=" M 963.244 728.761 L 983.01 728.761 L 983.01 728.761 C 983.01 730.403 981.666 731.735 980.01 731.735 L 966.244 731.735 C 964.588 731.735 963.244 730.403 963.244 728.761 L 963.244 728.761 L 963.244 728.761 L 963.244 728.761 Z " fill="rgb(68,49,34)"/><path d=" M 987.875 737.368 L 987.991 739.712 L 895.58 744.289 C 893.927 744.371 892.532 743.387 892.468 742.093 L 892.468 742.093 L 987.875 737.368 L 987.875 737.368 L 987.875 737.368 Z " fill="rgb(68,49,34)"/></g><path d=" M 972.658 272.761 L 933.981 341.569 L 893.73 273.67 L 972.658 272.761 L 972.658 272.761 L 972.658 272.761 Z " fill="rgb(108,80,56)"/></g><path d=" M 894.861 274.927 L 935.167 214.752 L 972.595 276.31 L 894.861 274.927 L 894.861 274.927 L 894.861 274.927 Z " fill="rgb(108,80,56)"/><g><path d=" M 739.54 526.105 L 739.54 526.105 C 741.412 527.275 741.744 530.125 740.281 532.465 L 721.725 562.141 C 720.262 564.481 717.554 565.43 715.682 564.26 L 715.682 564.26 C 713.81 563.09 713.478 560.24 714.941 557.9 L 733.497 528.224 C 734.96 525.884 737.668 524.934 739.54 526.105 Z " fill="rgb(208,83,65)"/><path d=" M 740.992 528.542 L 740.992 528.542 C 741.683 528.974 741.54 530.451 740.672 531.839 L 721.441 562.595 C 720.575 563.979 719.312 564.752 718.621 564.32 L 718.621 564.32 L 740.992 528.542 L 740.992 528.542 L 740.992 528.542 Z " fill="rgb(107,53,35)"/></g><g><path d=" M 758.26 500.55 L 758.26 500.55 C 759.937 501.986 759.84 504.854 758.045 506.95 L 735.273 533.528 C 733.477 535.624 730.659 536.159 728.982 534.723 L 728.982 534.723 C 727.306 533.287 727.402 530.419 729.198 528.323 L 751.97 501.745 C 753.765 499.649 756.584 499.114 758.26 500.55 Z " fill="rgb(208,83,65)"/><path d=" M 759.333 503.176 L 759.333 503.176 C 759.952 503.706 759.59 505.146 758.525 506.389 L 734.925 533.935 C 733.863 535.174 732.498 535.75 731.879 535.22 L 731.879 535.22 L 759.333 503.176 L 759.333 503.176 L 759.333 503.176 Z " fill="rgb(107,53,35)"/></g><g><path d=" M 774.185 474.567 L 774.185 474.567 C 775.862 476.003 775.765 478.871 773.97 480.967 L 751.198 507.546 C 749.402 509.641 746.584 510.176 744.907 508.74 L 744.907 508.74 C 743.231 507.304 743.327 504.436 745.123 502.341 L 767.895 475.762 C 769.69 473.666 772.509 473.131 774.185 474.567 Z " fill="rgb(208,83,65)"/><path d=" M 775.258 477.193 L 775.258 477.193 C 775.877 477.723 775.515 479.163 774.45 480.406 L 750.85 507.952 C 749.788 509.192 748.423 509.767 747.804 509.237 L 747.804 509.237 L 775.258 477.193 L 775.258 477.193 L 775.258 477.193 Z " fill="rgb(107,53,35)"/></g><g><path d=" M 791.504 447.567 L 791.504 447.567 C 793.181 449.003 793.084 451.871 791.289 453.967 L 768.517 480.546 C 766.721 482.641 763.902 483.176 762.226 481.74 L 762.226 481.74 C 760.549 480.304 760.646 477.436 762.441 475.341 L 785.213 448.762 C 787.009 446.666 789.828 446.131 791.504 447.567 Z " fill="rgb(208,83,65)"/><path d=" M 792.577 450.193 L 792.577 450.193 C 793.196 450.723 792.834 452.163 791.769 453.406 L 768.168 480.952 C 767.106 482.192 765.742 482.767 765.123 482.237 L 765.123 482.237 L 792.577 450.193 L 792.577 450.193 L 792.577 450.193 Z " fill="rgb(107,53,35)"/></g><path d=" M 933.255 342.761 L 894.074 271.352 L 896.655 269.917 L 935.029 339.855 L 933.255 342.761 L 933.255 342.761 L 933.255 342.761 L 933.255 342.761 Z " fill="rgb(26,18,12)"/><rect x="912.535" y="306.132" width="78.646" height="1.38" transform="matrix(0.483,-0.875,0.875,0.483,223.245,991.875)" fill="rgb(26,18,12)"/><g><path d=" M 811.654 415.782 L 811.654 415.782 C 813.331 417.219 813.234 420.086 811.438 422.182 L 788.667 448.761 C 786.871 450.856 784.052 451.392 782.376 449.955 L 782.376 449.955 C 780.699 448.519 780.796 445.651 782.591 443.556 L 805.363 416.977 C 807.159 414.881 809.978 414.346 811.654 415.782 Z " fill="rgb(208,83,65)"/><path d=" M 812.727 418.408 L 812.727 418.408 C 813.346 418.939 812.984 420.378 811.919 421.622 L 788.318 449.167 C 787.256 450.407 785.891 450.983 785.273 450.452 L 785.273 450.452 L 812.727 418.408 L 812.727 418.408 L 812.727 418.408 Z " fill="rgb(107,53,35)"/></g><g><path d=" M 831.654 384.567 L 831.654 384.567 C 833.331 386.003 833.234 388.871 831.438 390.967 L 808.667 417.546 C 806.871 419.641 804.052 420.176 802.376 418.74 L 802.376 418.74 C 800.699 417.304 800.796 414.436 802.591 412.341 L 825.363 385.762 C 827.159 383.666 829.978 383.131 831.654 384.567 Z " fill="rgb(208,83,65)"/><path d=" M 832.727 387.193 L 832.727 387.193 C 833.346 387.723 832.984 389.163 831.919 390.406 L 808.318 417.952 C 807.256 419.192 805.891 419.767 805.273 419.237 L 805.273 419.237 L 832.727 387.193 L 832.727 387.193 L 832.727 387.193 Z " fill="rgb(107,53,35)"/></g><g><path d=" M 846.504 356.567 L 846.504 356.567 C 848.181 358.003 848.084 360.871 846.289 362.967 L 823.517 389.546 C 821.721 391.641 818.902 392.176 817.226 390.74 L 817.226 390.74 C 815.549 389.304 815.646 386.436 817.441 384.341 L 840.213 357.762 C 842.009 355.666 844.828 355.131 846.504 356.567 Z " fill="rgb(208,83,65)"/><path d=" M 847.577 359.193 L 847.577 359.193 C 848.196 359.723 847.834 361.163 846.769 362.406 L 823.168 389.952 C 822.106 391.192 820.742 391.767 820.123 391.237 L 820.123 391.237 L 847.577 359.193 L 847.577 359.193 L 847.577 359.193 Z " fill="rgb(107,53,35)"/></g><g><path d=" M 865.654 325.782 L 865.654 325.782 C 867.331 327.219 867.234 330.086 865.438 332.182 L 842.667 358.761 C 840.871 360.856 838.052 361.392 836.376 359.955 L 836.376 359.955 C 834.699 358.519 834.796 355.651 836.591 353.556 L 859.363 326.977 C 861.159 324.881 863.978 324.346 865.654 325.782 Z " fill="rgb(208,83,65)"/><path d=" M 866.727 328.408 L 866.727 328.408 C 867.346 328.939 866.984 330.378 865.919 331.622 L 842.318 359.167 C 841.256 360.407 839.891 360.983 839.273 360.452 L 839.273 360.452 L 866.727 328.408 L 866.727 328.408 L 866.727 328.408 Z " fill="rgb(107,53,35)"/></g><g><path d=" M 879.654 300.782 L 879.654 300.782 C 881.331 302.219 881.234 305.086 879.438 307.182 L 856.667 333.761 C 854.871 335.856 852.052 336.392 850.376 334.955 L 850.376 334.955 C 848.699 333.519 848.796 330.651 850.591 328.556 L 873.363 301.977 C 875.159 299.881 877.978 299.346 879.654 300.782 Z " fill="rgb(208,83,65)"/><path d=" M 880.727 303.408 L 880.727 303.408 C 881.346 303.939 880.984 305.378 879.919 306.622 L 856.318 334.167 C 855.256 335.407 853.891 335.983 853.273 335.452 L 853.273 335.452 L 880.727 303.408 L 880.727 303.408 L 880.727 303.408 Z " fill="rgb(107,53,35)"/></g><g><path d=" M 897.504 273.782 L 897.504 273.782 C 899.181 275.219 899.084 278.086 897.289 280.182 L 874.517 306.761 C 872.721 308.856 869.902 309.392 868.226 307.955 L 868.226 307.955 C 866.549 306.519 866.646 303.651 868.441 301.556 L 891.213 274.977 C 893.009 272.881 895.828 272.346 897.504 273.782 Z " fill="rgb(208,83,65)"/><path d=" M 898.577 276.408 L 898.577 276.408 C 899.196 276.939 898.834 278.378 897.769 279.622 L 874.168 307.167 C 873.106 308.407 871.742 308.983 871.123 308.452 L 871.123 308.452 L 898.577 276.408 L 898.577 276.408 L 898.577 276.408 Z " fill="rgb(107,53,35)"/></g><g><path d=" M 913.429 246.567 L 913.429 246.567 C 915.106 248.003 915.009 250.871 913.214 252.967 L 890.442 279.546 C 888.646 281.641 885.827 282.176 884.151 280.74 L 884.151 280.74 C 882.474 279.304 882.571 276.436 884.366 274.341 L 907.138 247.762 C 908.934 245.666 911.753 245.131 913.429 246.567 Z " fill="rgb(208,83,65)"/><path d=" M 914.502 249.193 L 914.502 249.193 C 915.121 249.723 914.759 251.163 913.694 252.406 L 890.093 279.952 C 889.031 281.192 887.667 281.767 887.048 281.237 L 887.048 281.237 L 914.502 249.193 L 914.502 249.193 L 914.502 249.193 Z " fill="rgb(107,53,35)"/></g><g><path d=" M 934.654 213.567 L 934.654 213.567 C 936.331 215.003 936.234 217.871 934.438 219.967 L 911.667 246.546 C 909.871 248.641 907.052 249.176 905.376 247.74 L 905.376 247.74 C 903.699 246.304 903.796 243.436 905.591 241.341 L 928.363 214.762 C 930.159 212.666 932.978 212.131 934.654 213.567 Z " fill="rgb(208,83,65)"/><path d=" M 935.727 216.193 L 935.727 216.193 C 936.346 216.723 935.984 218.163 934.919 219.406 L 911.318 246.952 C 910.256 248.192 908.891 248.767 908.273 248.237 L 908.273 248.237 L 935.727 216.193 L 935.727 216.193 L 935.727 216.193 Z " fill="rgb(107,53,35)"/></g><g><path d=" M 1128.535 526.157 L 1128.535 526.157 C 1126.697 527.38 1126.447 530.238 1127.976 532.536 L 1147.368 561.672 C 1148.897 563.969 1151.631 564.841 1153.468 563.618 L 1153.468 563.618 C 1155.306 562.395 1155.557 559.537 1154.028 557.24 L 1134.635 528.103 C 1133.106 525.806 1130.373 524.934 1128.535 526.157 Z " fill="rgb(208,83,65)"/><path d=" M 1127.153 528.634 L 1127.153 528.634 C 1126.474 529.086 1126.66 530.559 1127.567 531.921 L 1147.665 562.118 C 1148.569 563.477 1149.854 564.213 1150.533 563.762 L 1150.533 563.762 L 1127.153 528.634 L 1127.153 528.634 L 1127.153 528.634 Z " fill="rgb(107,53,35)"/></g><g><path d=" M 1112.069 499.195 L 1112.069 499.195 C 1110.32 500.543 1110.268 503.412 1111.953 505.597 L 1133.32 533.318 C 1135.005 535.504 1137.792 536.184 1139.541 534.837 L 1139.541 534.837 C 1141.289 533.489 1141.341 530.62 1139.656 528.435 L 1118.289 500.714 C 1116.605 498.528 1113.817 497.848 1112.069 499.195 Z " fill="rgb(208,83,65)"/><path d=" M 1110.862 501.762 L 1110.862 501.762 C 1110.216 502.26 1110.503 503.717 1111.503 505.013 L 1133.647 533.742 C 1134.643 535.035 1135.976 535.681 1136.622 535.183 L 1136.622 535.183 L 1110.862 501.762 L 1110.862 501.762 L 1110.862 501.762 Z " fill="rgb(107,53,35)"/></g><g><path d=" M 1112.069 499.195 L 1112.069 499.195 C 1110.32 500.543 1110.268 503.412 1111.953 505.597 L 1133.32 533.318 C 1135.005 535.504 1137.792 536.184 1139.541 534.837 L 1139.541 534.837 C 1141.289 533.489 1141.341 530.62 1139.656 528.435 L 1118.289 500.714 C 1116.605 498.528 1113.817 497.848 1112.069 499.195 Z " fill="rgb(208,83,65)"/><path d=" M 1110.862 501.762 L 1110.862 501.762 C 1110.216 502.26 1110.503 503.717 1111.503 505.013 L 1133.647 533.742 C 1134.643 535.035 1135.976 535.681 1136.622 535.183 L 1136.622 535.183 L 1110.862 501.762 L 1110.862 501.762 L 1110.862 501.762 Z " fill="rgb(107,53,35)"/></g><g><path d=" M 1093.211 469.428 L 1093.211 469.428 C 1091.463 470.775 1091.411 473.644 1093.095 475.83 L 1114.462 503.551 C 1116.147 505.736 1118.934 506.417 1120.683 505.069 L 1120.683 505.069 C 1122.432 503.721 1122.483 500.853 1120.799 498.667 L 1099.432 470.946 C 1097.747 468.76 1094.96 468.08 1093.211 469.428 Z " fill="rgb(208,83,65)"/><path d=" M 1092.004 471.995 L 1092.004 471.995 C 1091.358 472.492 1091.646 473.949 1092.645 475.245 L 1114.789 503.975 C 1115.786 505.267 1117.119 505.913 1117.764 505.416 L 1117.764 505.416 L 1092.004 471.995 L 1092.004 471.995 L 1092.004 471.995 Z " fill="rgb(107,53,35)"/></g><g><path d=" M 1073.581 437.428 L 1073.581 437.428 C 1071.833 438.775 1071.781 441.644 1073.465 443.83 L 1094.832 471.551 C 1096.517 473.736 1099.304 474.417 1101.053 473.069 L 1101.053 473.069 C 1102.801 471.721 1102.853 468.853 1101.169 466.667 L 1079.802 438.946 C 1078.117 436.76 1075.33 436.08 1073.581 437.428 Z " fill="rgb(208,83,65)"/><path d=" M 1072.374 439.995 L 1072.374 439.995 C 1071.728 440.492 1072.016 441.949 1073.015 443.245 L 1095.159 471.975 C 1096.156 473.267 1097.489 473.913 1098.134 473.416 L 1098.134 473.416 L 1072.374 439.995 L 1072.374 439.995 L 1072.374 439.995 Z " fill="rgb(107,53,35)"/></g><g><path d=" M 1053.581 406.453 L 1053.581 406.453 C 1051.833 407.801 1051.781 410.67 1053.465 412.856 L 1074.832 440.576 C 1076.517 442.762 1079.304 443.442 1081.053 442.095 L 1081.053 442.095 C 1082.801 440.747 1082.853 437.878 1081.169 435.693 L 1059.802 407.972 C 1058.117 405.786 1055.33 405.106 1053.581 406.453 Z " fill="rgb(208,83,65)"/><path d=" M 1052.374 409.02 L 1052.374 409.02 C 1051.728 409.518 1052.016 410.975 1053.015 412.271 L 1075.159 441 C 1076.156 442.293 1077.489 442.939 1078.134 442.441 L 1078.134 442.441 L 1052.374 409.02 L 1052.374 409.02 L 1052.374 409.02 Z " fill="rgb(107,53,35)"/></g><g><path d=" M 1034.581 374.346 L 1034.581 374.346 C 1032.833 375.694 1032.781 378.562 1034.465 380.748 L 1055.832 408.469 C 1057.517 410.655 1060.304 411.335 1062.053 409.987 L 1062.053 409.987 C 1063.801 408.639 1063.853 405.771 1062.169 403.585 L 1040.802 375.864 C 1039.117 373.678 1036.33 372.998 1034.581 374.346 Z " fill="rgb(208,83,65)"/><path d=" M 1033.374 376.913 L 1033.374 376.913 C 1032.728 377.41 1033.016 378.867 1034.015 380.163 L 1056.159 408.893 C 1057.156 410.186 1058.489 410.831 1059.134 410.334 L 1059.134 410.334 L 1033.374 376.913 L 1033.374 376.913 L 1033.374 376.913 Z " fill="rgb(107,53,35)"/></g><g><path d=" M 1015.211 343.561 L 1015.211 343.561 C 1013.463 344.909 1013.411 347.778 1015.095 349.963 L 1036.462 377.684 C 1038.147 379.87 1040.934 380.55 1042.683 379.202 L 1042.683 379.202 C 1044.432 377.855 1044.483 374.986 1042.799 372.8 L 1021.432 345.079 C 1019.747 342.894 1016.96 342.213 1015.211 343.561 Z " fill="rgb(208,83,65)"/><path d=" M 1014.004 346.128 L 1014.004 346.128 C 1013.358 346.626 1013.646 348.082 1014.645 349.379 L 1036.789 378.108 C 1037.786 379.401 1039.119 380.047 1039.764 379.549 L 1039.764 379.549 L 1014.004 346.128 L 1014.004 346.128 L 1014.004 346.128 Z " fill="rgb(107,53,35)"/></g><g><path d=" M 996.581 313.453 L 996.581 313.453 C 994.833 314.801 994.781 317.67 996.465 319.856 L 1017.832 347.576 C 1019.517 349.762 1022.304 350.442 1024.053 349.095 L 1024.053 349.095 C 1025.801 347.747 1025.853 344.878 1024.169 342.693 L 1002.802 314.972 C 1001.117 312.786 998.33 312.106 996.581 313.453 Z " fill="rgb(208,83,65)"/><path d=" M 995.374 316.02 L 995.374 316.02 C 994.728 316.518 995.016 317.975 996.015 319.271 L 1018.159 348 C 1019.156 349.293 1020.489 349.939 1021.134 349.441 L 1021.134 349.441 L 995.374 316.02 L 995.374 316.02 L 995.374 316.02 Z " fill="rgb(107,53,35)"/></g><g><path d=" M 978.211 282.238 L 978.211 282.238 C 976.463 283.586 976.411 286.455 978.095 288.64 L 999.462 316.361 C 1001.147 318.547 1003.934 319.227 1005.683 317.879 L 1005.683 317.879 C 1007.432 316.532 1007.483 313.663 1005.799 311.477 L 984.432 283.756 C 982.747 281.571 979.96 280.89 978.211 282.238 Z " fill="rgb(208,83,65)"/><path d=" M 977.004 284.805 L 977.004 284.805 C 976.358 285.303 976.646 286.759 977.645 288.056 L 999.789 316.785 C 1000.786 318.078 1002.119 318.724 1002.764 318.226 L 1002.764 318.226 L 977.004 284.805 L 977.004 284.805 L 977.004 284.805 Z " fill="rgb(107,53,35)"/></g><g><path d=" M 963.026 255.156 L 963.026 255.156 C 961.278 256.504 961.226 259.372 962.911 261.558 L 984.278 289.279 C 985.962 291.465 988.75 292.145 990.498 290.797 L 990.498 290.797 C 992.247 289.449 992.298 286.581 990.614 284.395 L 969.247 256.674 C 967.562 254.488 964.775 253.808 963.026 255.156 Z " fill="rgb(208,83,65)"/><path d=" M 961.819 257.723 L 961.819 257.723 C 961.173 258.22 961.461 259.677 962.46 260.973 L 984.604 289.703 C 985.601 290.996 986.934 291.641 987.579 291.144 L 987.579 291.144 L 961.819 257.723 L 961.819 257.723 L 961.819 257.723 Z " fill="rgb(107,53,35)"/></g><g><path d=" M 947.841 232.482 L 947.841 232.482 C 946.093 233.83 946.041 236.699 947.726 238.884 L 969.093 266.605 C 970.777 268.791 973.565 269.471 975.313 268.123 L 975.313 268.123 C 977.062 266.776 977.113 263.907 975.429 261.721 L 954.062 234 C 952.377 231.815 949.59 231.134 947.841 232.482 Z " fill="rgb(208,83,65)"/><path d=" M 946.634 235.049 L 946.634 235.049 C 945.989 235.547 946.276 237.003 947.275 238.3 L 969.419 267.029 C 970.416 268.322 971.749 268.968 972.395 268.47 L 972.395 268.47 L 946.634 235.049 L 946.634 235.049 L 946.634 235.049 Z " fill="rgb(107,53,35)"/></g><g><path d=" M 936.556 213.407 L 936.556 213.407 C 934.778 214.715 934.661 217.582 936.297 219.805 L 957.034 247.999 C 958.669 250.222 961.441 250.965 963.219 249.657 L 963.219 249.657 C 964.997 248.349 965.114 245.482 963.479 243.259 L 942.741 215.065 C 941.106 212.842 938.335 212.099 936.556 213.407 Z " fill="rgb(208,83,65)"/><path d=" M 935.292 215.946 L 935.292 215.946 C 934.635 216.429 934.889 217.892 935.859 219.21 L 957.351 248.431 C 958.319 249.746 959.637 250.421 960.293 249.938 L 960.293 249.938 L 935.292 215.946 L 935.292 215.946 L 935.292 215.946 Z " fill="rgb(107,53,35)"/></g></g><g><g><g><path d=" M 1085.312 228.5 L 1154.383 137.192 L 1190.634 165.821 L 1172.41 188.619 L 1172.41 188.619 L 951.511 447.125 L 932.603 432.192 L 1085.312 228.5 L 1084.155 228.5 L 1085.312 228.5 Z " fill="rgb(187,135,85)"/><rect x="950.638" y="410.912" width="28.973" height="2.319" transform="matrix(0.785,0.619,-0.619,0.785,462.42,-509.1)" fill="rgb(140,98,61)"/><rect x="975.261" y="378.851" width="28.973" height="2.319" transform="matrix(0.785,0.619,-0.619,0.785,447.856,-531.231)" fill="rgb(140,98,61)"/><rect x="999.169" y="348.443" width="30.235" height="2.319" transform="matrix(0.785,0.619,-0.619,0.785,434.298,-552.956)" fill="rgb(140,98,61)"/><rect x="1026.669" y="311.901" width="31.795" height="2.319" transform="matrix(0.785,0.619,-0.619,0.785,417.744,-578.314)" fill="rgb(140,98,61)"/><rect x="1053.989" y="277.06" width="35.895" height="2.319" transform="matrix(0.785,0.619,-0.619,0.785,402.479,-603.983)" fill="rgb(140,98,61)"/><rect x="1083.424" y="237.108" width="37.245" height="2.319" transform="matrix(0.785,0.619,-0.619,0.785,384.207,-631.206)" fill="rgb(140,98,61)"/><rect x="1119.73" y="189.445" width="40.796" height="2.319" transform="matrix(0.785,0.619,-0.619,0.785,362.873,-665.022)" fill="rgb(140,98,61)"/><rect x="1042.655" y="98.55" width="3.707" height="367.011" transform="matrix(-0.799,-0.602,0.602,-0.799,1709.007,1135.869)" fill="rgb(98,72,47)"/><rect x="1071.432" y="121.196" width="3.707" height="366.816" transform="matrix(-0.767,-0.642,0.642,-0.767,1700.797,1227.076)" fill="rgb(98,72,47)"/></g></g><g><g><g><path d=" M 783.746 228.5 L 714.674 137.192 L 678.424 165.821 L 696.647 188.619 L 696.647 188.619 L 917.546 447.125 L 936.455 432.192 L 783.746 228.5 L 784.903 228.5 L 783.746 228.5 Z " fill="rgb(187,135,85)"/><rect x="889.446" y="410.912" width="28.973" height="2.319" transform="matrix(0.785,-0.619,0.619,0.785,-61.023,648.202)" fill="rgb(140,98,61)"/><rect x="864.823" y="378.851" width="28.973" height="2.319" transform="matrix(0.785,-0.619,0.619,0.785,-46.459,626.071)" fill="rgb(140,98,61)"/><rect x="839.653" y="348.443" width="30.235" height="2.319" transform="matrix(0.785,-0.619,0.619,0.785,-32.901,604.346)" fill="rgb(140,98,61)"/><rect x="810.593" y="311.901" width="31.795" height="2.319" transform="matrix(0.785,-0.619,0.619,0.785,-16.348,578.988)" fill="rgb(140,98,61)"/><rect x="779.173" y="277.06" width="35.895" height="2.319" transform="matrix(0.785,-0.619,0.619,0.785,-1.082,553.319)" fill="rgb(140,98,61)"/><rect x="748.389" y="237.108" width="37.245" height="2.319" transform="matrix(0.785,-0.619,0.619,0.785,17.189,526.096)" fill="rgb(140,98,61)"/><rect x="708.531" y="189.445" width="40.796" height="2.319" transform="matrix(0.785,-0.619,0.619,0.785,38.523,492.28)" fill="rgb(140,98,61)"/><rect x="822.695" y="98.55" width="3.707" height="367.011" transform="matrix(-0.799,0.602,-0.602,-0.799,1652.827,11.149)" fill="rgb(98,72,47)"/><rect x="793.919" y="121.196" width="3.707" height="366.816" transform="matrix(-0.767,0.642,-0.642,-0.767,1601.503,27.413)" fill="rgb(98,72,47)"/></g></g></g><g><g><g><path d=" M 783.746 660.025 L 714.674 751.333 L 678.424 722.704 L 696.647 699.906 L 696.647 699.906 L 917.546 441.4 L 936.455 456.333 L 783.746 660.025 L 784.903 660.025 L 783.746 660.025 Z " fill="rgb(187,135,85)"/><rect x="889.446" y="475.294" width="28.973" height="2.319" transform="matrix(-0.785,-0.619,0.619,-0.785,1318.723,1410.29)" fill="rgb(140,98,61)"/><rect x="864.823" y="507.355" width="28.973" height="2.319" transform="matrix(-0.785,-0.619,0.619,-0.785,1254.913,1452.281)" fill="rgb(140,98,61)"/><rect x="839.653" y="537.763" width="30.235" height="2.319" transform="matrix(-0.785,-0.619,0.619,-0.785,1192.276,1491.372)" fill="rgb(140,98,61)"/><rect x="810.593" y="574.305" width="31.795" height="2.319" transform="matrix(-0.785,-0.619,0.619,-0.785,1119.164,1539.098)" fill="rgb(140,98,61)"/><rect x="779.173" y="609.146" width="35.895" height="2.319" transform="matrix(-0.785,-0.619,0.619,-0.785,1045.158,1583.111)" fill="rgb(140,98,61)"/><rect x="748.389" y="649.098" width="37.245" height="2.319" transform="matrix(-0.785,-0.619,0.619,-0.785,966.666,1635.792)" fill="rgb(140,98,61)"/><rect x="708.531" y="696.761" width="40.796" height="2.319" transform="matrix(-0.785,-0.619,0.619,-0.785,869.168,1697.301)" fill="rgb(140,98,61)"/><rect x="822.695" y="422.964" width="3.707" height="367.011" transform="matrix(0.799,0.602,-0.602,0.799,530.947,-374.083)" fill="rgb(98,72,47)"/><rect x="793.919" y="400.513" width="3.707" height="366.816" transform="matrix(0.767,0.642,-0.642,0.767,560.345,-374.615)" fill="rgb(98,72,47)"/></g></g></g><g><g><g><path d=" M 1085.312 660.025 L 1154.383 751.333 L 1190.634 722.704 L 1172.41 699.906 L 1172.41 699.906 L 951.511 441.4 L 932.603 456.333 L 1085.312 660.025 L 1084.155 660.025 L 1085.312 660.025 Z " fill="rgb(187,135,85)"/><rect x="950.638" y="475.294" width="28.973" height="2.319" transform="matrix(-0.785,0.619,-0.619,-0.785,2017.995,252.988)" fill="rgb(140,98,61)"/><rect x="975.261" y="507.355" width="28.973" height="2.319" transform="matrix(-0.785,0.619,-0.619,-0.785,2081.805,294.979)" fill="rgb(140,98,61)"/><rect x="999.169" y="537.763" width="30.235" height="2.319" transform="matrix(-0.785,0.619,-0.619,-0.785,2144.442,334.07)" fill="rgb(140,98,61)"/><rect x="1026.669" y="574.305" width="31.795" height="2.319" transform="matrix(-0.785,0.619,-0.619,-0.785,2217.555,381.796)" fill="rgb(140,98,61)"/><rect x="1053.989" y="609.146" width="35.895" height="2.319" transform="matrix(-0.785,0.619,-0.619,-0.785,2291.561,425.809)" fill="rgb(140,98,61)"/><rect x="1083.424" y="649.098" width="37.245" height="2.319" transform="matrix(-0.785,0.619,-0.619,-0.785,2370.052,478.49)" fill="rgb(140,98,61)"/><rect x="1119.73" y="696.761" width="40.796" height="2.319" transform="matrix(-0.785,0.619,-0.619,-0.785,2467.55,540)" fill="rgb(140,98,61)"/><rect x="1042.655" y="422.964" width="3.707" height="367.011" transform="matrix(0.799,-0.602,0.602,0.799,-154.666,750.637)" fill="rgb(98,72,47)"/><rect x="1071.432" y="400.513" width="3.707" height="366.816" transform="matrix(0.767,-0.642,0.642,0.767,-124.53,825.048)" fill="rgb(98,72,47)"/></g></g></g></g><path d=" M 910.428 426.773 C 921.223 413.471 940.788 411.436 954.09 422.231 C 967.391 433.028 969.426 452.593 958.63 465.894 C 947.835 479.196 928.27 481.231 914.968 470.434 C 901.666 459.638 899.631 440.074 910.428 426.773 Z " fill="rgb(98,72,47)"/></g></svg>