<?xml version="1.0" encoding="UTF-8" standalone="no"?><!-- Generator: Gravit.io --><svg xmlns="http://www.w3.org/2000/svg" xmlns:xlink="http://www.w3.org/1999/xlink" style="isolation:isolate" viewBox="0 0 1920 1080" width="1920pt" height="1080pt"><defs><clipPath id="_clipPath_lZumlvi1Erd9aFgxWibnZA5Ma0fhRw88"><rect width="1920" height="1080"/></clipPath></defs><g clip-path="url(#_clipPath_lZumlvi1Erd9aFgxWibnZA5Ma0fhRw88)"><g><g><g><g><path d=" M 881.668 410.42 L 881.668 410.42 C 917.196 410.42 946.04 439.414 946.04 475.127 L 946.04 570.573 C 946.04 606.286 917.196 635.28 881.668 635.28 L 881.668 635.28 C 846.14 635.28 817.296 606.286 817.296 570.573 L 817.296 475.127 C 817.296 439.414 846.14 410.42 881.668 410.42 Z " fill="rgb(195,57,44)"/><rect x="817.296" y="496.065" width="128.85" height="8.386" transform="matrix(1,0,0,1,0,0)" fill="rgb(131,23,17)"/><rect x="817.296" y="543.029" width="128.85" height="8.386" transform="matrix(1,0,0,1,0,0)" fill="rgb(131,23,17)"/></g><g><path d=" M 881.668 410.42 L 881.668 410.42 C 917.196 410.42 946.04 439.414 946.04 475.127 L 946.04 570.573 C 946.04 606.286 917.196 635.28 881.668 635.28 L 881.668 635.28 C 846.14 635.28 817.296 606.286 817.296 570.573 L 817.296 475.127 C 817.296 439.414 846.14 410.42 881.668 410.42 Z " fill="rgb(219,211,208)"/></g></g><g><path d=" M 994.358 455.093 L 996.371 457.456 C 1020.265 485.506 1018.158 529.075 991.67 554.689 L 925.187 618.978 C 898.699 644.592 857.795 642.614 833.901 614.564 L 831.888 612.201 C 807.994 584.152 810.101 540.583 836.589 514.969 L 903.072 450.68 C 929.56 425.066 970.464 427.044 994.358 455.093 Z " fill="rgb(237,157,132)"/><path d=" M 964.32 530.584 L 967.149 528.542 C 977.529 521.049 980.379 506.196 973.51 495.394 L 958.315 471.499 C 951.446 460.697 937.443 458.01 927.063 465.502 L 924.234 467.544 C 913.855 475.037 911.004 489.89 917.873 500.692 L 933.068 524.587 C 939.937 535.389 953.94 538.076 964.32 530.584 Z " fill="rgb(246,193,155)"/></g></g><g><path d=" M 600.303 591.098 L 600.303 620.287 C 600.303 654.808 624.352 682.835 653.975 682.835 L 797.099 682.835 C 826.721 682.835 850.771 654.808 850.771 620.287 L 850.771 591.098 L 600.303 591.098 L 600.303 591.098 Z " fill="rgb(38,10,84)"/><g><path d=" M 634.688 411.691 L 844.35 411.691 C 889.71 411.691 926.537 448.518 926.537 493.879 L 926.537 525.747 C 926.537 571.108 889.71 607.935 844.35 607.935 L 634.688 607.935 C 589.327 607.935 552.5 571.108 552.5 525.747 L 552.5 493.879 C 552.5 448.518 589.327 411.691 634.688 411.691 Z " fill="rgb(246,237,234)"/><path d=" M 814.029 563.576 L 868.445 415.302 C 860.828 412.949 852.735 411.691 844.35 411.691 L 656.399 411.691 L 814.029 563.576 L 814.029 563.576 Z " fill="rgb(246,193,155)"/><path d=" M 858.762 606.678 C 854.081 607.502 849.266 607.935 844.35 607.935 L 797.75 607.935 L 797.75 607.935 L 814.029 563.576 L 858.762 606.678 L 858.762 606.678 Z " fill="rgb(246,237,234)"/><path d=" M 910.939 573.872 C 896.017 594.508 871.739 607.935 844.35 607.935 L 634.688 607.935 C 607.298 607.935 583.02 594.508 568.098 573.872 L 910.939 573.872 L 910.939 573.872 Z " fill="rgb(245,237,234)"/></g></g><g><path d=" M 860.284 797.684 L 860.284 706.102 C 860.284 679.625 840.109 658.13 815.259 658.13 L 815.259 658.13 C 790.409 658.13 770.234 679.625 770.234 706.102 L 770.234 797.684 L 860.284 797.684 L 860.284 797.684 Z " fill="rgb(38,10,84)"/><rect x="770.234" y="742.667" width="90.05" height="55.017" transform="matrix(1,0,0,1,0,0)" fill="rgb(145,87,86)"/><path d=" M 770.234 779.234 L 873.702 779.234 C 881.108 779.234 887.121 785.246 887.121 792.652 L 887.121 799.147 L 770.234 799.147 L 770.234 779.234 Z " fill="rgb(145,87,86)"/><rect x="770.234" y="734" width="90.05" height="9.956" transform="matrix(1,0,0,1,0,0)" fill="rgb(173,129,128)"/></g><g><path d=" M 700.978 797.684 L 700.978 706.102 C 700.978 679.625 680.803 658.13 655.953 658.13 L 655.953 658.13 C 631.103 658.13 610.928 679.625 610.928 706.102 L 610.928 797.684 L 700.978 797.684 L 700.978 797.684 Z " fill="rgb(38,10,84)"/><rect x="610.928" y="743.333" width="90.05" height="54.35" transform="matrix(1,0,0,1,0,0)" fill="rgb(145,87,86)"/><path d=" M 610.928 780.696 L 716.036 780.696 C 722.516 780.696 727.777 785.957 727.777 792.437 L 727.777 799.147 L 610.928 799.147 L 610.928 780.696 Z " fill="rgb(145,87,86)"/><rect x="610.928" y="734" width="90.05" height="9.956" transform="matrix(1,0,0,1,0,0)" fill="rgb(173,129,128)"/></g><path d=" M 861 412.125 C 822.281 472.497 755.442 476.941 667.125 411 L 654.938 411.75 L 707.955 576.136 L 687.905 690.166 C 686.854 696.146 690.86 701.824 696.845 702.839 C 743 710.667 854.343 710.343 875.544 703.416 C 881.315 701.531 884.192 695.415 881.964 689.767 L 835.136 571.024 C 832.301 563.836 831.855 552.007 834.139 544.626 L 873.75 416.625 L 861 412.125 Z " fill="rgb(145,87,86)"/><path d=" M 557 552 C 705.667 557.333 827.677 555.843 923 550.5 L 917.5 564 C 821.5 569.333 705.01 570.343 557 565 L 557 552 Z " fill="rgb(98,50,50)"/><g><g><g><path d=" M 618.331 411.691 L 618.331 411.691 C 653.859 411.691 682.703 440.686 682.703 476.398 L 682.703 571.845 C 682.703 607.558 653.859 636.552 618.331 636.552 L 618.331 636.552 C 582.803 636.552 553.959 607.558 553.959 571.845 L 553.959 476.398 C 553.959 440.686 582.803 411.691 618.331 411.691 Z " fill="rgb(245,237,234)"/></g></g></g><g><g><circle vector-effect="non-scaling-stroke" cx="732.9744233973681" cy="302.66650606434206" r="119.08802185979266" fill="rgb(246,193,155)"/><path d=" M 672.144 210.416 L 721.233 210.416 L 720.75 294 C 720.75 299.554 714.304 328.5 708.75 328.5 L 613.886 316.085 L 613.886 268.673 C 613.886 236.52 639.991 210.416 672.144 210.416 Z " fill="rgb(114,65,48)"/><path d=" M 763.276 331.181 L 810.02 331.181 C 820.264 331.181 851.25 309.257 851.25 319.5 C 866.6 367.261 859.053 404.711 828.58 431.819 C 743.596 455.922 674.912 426.742 622.5 344.25 L 635.25 315.75 C 635.25 305.507 753.032 331.181 763.276 331.181 Z " fill="rgb(114,65,48)"/><path d=" M 755.84 378.145 L 755.84 363.152 C 755.84 347.59 768.475 334.955 784.037 334.955 L 789.258 334.955 C 804.821 334.955 817.455 347.59 817.455 363.152 L 817.455 378.145 L 755.84 378.145 L 755.84 378.145 Z " fill="rgb(235,235,235)"/></g><g><g><circle vector-effect="non-scaling-stroke" cx="826.0643559779102" cy="293.44137761041475" r="14.257016701524435" fill="rgb(0,0,0)"/><circle vector-effect="non-scaling-stroke" cx="831.9348922667721" cy="293.44137761041435" r="5.870536288862468" fill="rgb(255,255,255)"/></g><g><circle vector-effect="non-scaling-stroke" cx="767.3589930892813" cy="293.44137761041475" r="14.257016701524435" fill="rgb(0,0,0)"/><circle vector-effect="non-scaling-stroke" cx="775.7454735019417" cy="293.4413776104146" r="5.870536288862468" fill="rgb(255,255,255)"/></g><path d=" M 699.419 183.579 L 729.128 183.579 C 819.195 183.579 857.955 190.146 857.955 190.909 C 857.955 190.909 892.318 211.519 892.318 211.519 L 894.35 223.345 C 907.641 300.686 834.538 323.886 729.128 263.251 L 659.173 263.251 L 659.173 223.825 C 659.173 201.612 677.207 183.579 699.419 183.579 Z " fill="rgb(114,65,48)"/></g><path d=" M 745.415 267.444 L 779.803 267.444 C 782.966 267.444 785.534 269.241 785.534 271.456 L 785.534 271.456 C 785.534 273.67 782.966 275.468 779.803 275.468 L 745.415 275.468 C 742.252 275.468 739.684 273.67 739.684 271.456 L 739.684 271.456 C 739.684 269.241 742.252 267.444 745.415 267.444 Z " fill="rgb(114,65,48)"/><path d=" M 804.12 267.444 L 838.508 267.444 C 841.671 267.444 844.239 269.241 844.239 271.456 L 844.239 271.456 C 844.239 273.67 841.671 275.468 838.508 275.468 L 804.12 275.468 C 800.957 275.468 798.389 273.67 798.389 271.456 L 798.389 271.456 C 798.389 269.241 800.957 267.444 804.12 267.444 Z " fill="rgb(114,65,48)"/><path d=" M 797.099 292.603 L 797.099 292.603 C 799.424 292.603 801.311 295.61 801.311 299.312 L 801.311 319.44 C 801.311 323.143 799.424 326.149 797.099 326.149 L 797.099 326.149 C 794.774 326.149 792.887 323.143 792.887 319.44 L 792.887 299.312 C 792.887 295.61 794.774 292.603 797.099 292.603 Z " fill="rgb(236,148,125)"/><g><circle vector-effect="non-scaling-stroke" cx="621.2691393838259" cy="320.27811493093174" r="20.966201031653668" fill="rgb(246,193,155)"/><clipPath id="_clipPath_pRgehGsirALhka0b9f6OXflIBmW6WZTO"><circle vector-effect="non-scaling-stroke" cx="621.2691393838259" cy="320.27811493093174" r="20.966201031653668" fill="rgb(255,255,255)"/></clipPath><g clip-path="url(#_clipPath_pRgehGsirALhka0b9f6OXflIBmW6WZTO)"><g><g><circle vector-effect="non-scaling-stroke" cx="620.1533750380693" cy="320.27811493093174" r="9.225128453927596" fill="rgb(244,175,126)"/></g></g></g></g></g><g><path d=" M 931.695 507.16 L 947.759 540.916 L 686.902 665.059 C 676.764 669.884 664.933 666.239 660.5 656.924 L 660.5 656.924 C 656.067 647.608 660.699 636.128 670.838 631.303 L 931.695 507.16 Z " fill="rgb(171,113,39)"/><path d=" M 901.907 472.171 L 956.422 586.721 C 960.401 595.081 956.844 605.098 948.484 609.077 L 912.509 626.197 C 904.149 630.176 894.132 626.618 890.154 618.258 L 835.639 503.708 C 831.66 495.349 835.217 485.331 843.577 481.353 L 879.552 464.232 C 887.912 460.254 897.929 463.811 901.907 472.171 Z " fill="rgb(204,200,200)"/></g><g><path d=" M 688.739 638.7 L 690.387 641.733 C 695.656 651.433 708.046 655.499 718.038 650.811 L 739.547 640.717 C 749.539 636.027 753.373 624.345 748.104 614.647 L 746.456 611.614 C 741.188 601.914 728.798 597.847 718.805 602.536 L 697.297 612.63 C 687.304 617.32 683.47 629.001 688.739 638.7 Z " fill="rgb(236,148,125)"/><path d=" M 728.005 720.173 L 725.715 721.667 C 694.805 741.828 651.791 734.182 629.722 704.603 L 573.957 629.865 C 551.888 600.287 559.065 559.904 589.976 539.742 L 592.267 538.249 C 623.177 518.087 666.191 525.732 688.26 555.311 L 744.025 630.049 C 766.094 659.628 758.917 700.011 728.005 720.173 Z " fill="rgb(246,193,155)"/><path d=" M 687.091 629.624 C 691.754 630.223 695.084 634.261 694.522 638.638 C 693.961 643.014 689.719 646.081 685.057 645.483 C 680.394 644.885 677.064 640.846 677.626 636.47 C 678.187 632.094 682.429 629.026 687.091 629.624 Z " fill="rgb(236,148,125)"/><path d=" M 665.443 654.563 C 670.106 655.162 673.436 659.2 672.874 663.576 C 672.313 667.953 668.072 671.02 663.409 670.422 C 658.746 669.824 655.416 665.785 655.978 661.409 C 656.539 657.032 660.781 653.965 665.443 654.563 Z " fill="rgb(236,148,125)"/><path d=" M 700.489 659.06 C 705.152 659.658 708.482 663.697 707.92 668.073 C 707.359 672.449 703.117 675.516 698.455 674.918 C 693.792 674.32 690.462 670.281 691.024 665.905 C 691.585 661.529 695.827 658.462 700.489 659.06 Z " fill="rgb(236,148,125)"/></g></g></g></svg>