<?xml version="1.0" encoding="UTF-8" standalone="no"?><!-- Generator: Gravit.io --><svg xmlns="http://www.w3.org/2000/svg" xmlns:xlink="http://www.w3.org/1999/xlink" style="isolation:isolate" viewBox="0 0 1920 1080" width="1920pt" height="1080pt"><defs><clipPath id="_clipPath_oqobVK3RrfXM7hlE6QNFCNHPCopSsWNg"><rect width="1920" height="1080"/></clipPath></defs><g clip-path="url(#_clipPath_oqobVK3RrfXM7hlE6QNFCNHPCopSsWNg)"><g><rect x="616.082" y="725.065" width="35.411" height="56.268" transform="matrix(1,0,0,1,0,0)" fill="rgb(156,75,40)"/><rect x="616.082" y="725.065" width="17.924" height="56.268" transform="matrix(1,0,0,1,0,0)" fill="rgb(108,59,25)"/><g><g><path d=" M 558.354 748.552 L 633.787 617.899 L 709.221 748.552 L 558.354 748.552 Z " fill="rgb(96,152,1)"/><path d=" M 633.787 748.552 L 558.354 748.552 L 596.071 683.225 L 633.787 617.899 L 633.787 748.552 L 633.787 748.552 L 633.787 748.552 Z " fill="rgb(80,132,4)"/><path d=" M 558.354 748.552 L 633.787 617.899 L 709.221 748.552 L 558.354 748.552 Z " fill="rgb(96,152,1)"/><path d=" M 633.787 748.552 L 558.354 748.552 L 596.071 683.225 L 633.787 617.899 L 633.787 748.552 L 633.787 748.552 L 633.787 748.552 Z " fill="rgb(80,132,4)"/></g><g><path d=" M 574.778 669.003 L 633.787 566.794 L 692.797 669.003 L 574.778 669.003 Z " fill="rgb(96,152,1)"/><path d=" M 633.787 669.003 L 574.778 669.003 L 604.283 617.899 L 633.787 566.794 L 633.787 669.003 L 633.787 669.003 L 633.787 669.003 Z " fill="rgb(80,132,4)"/><path d=" M 574.778 669.003 L 633.787 566.794 L 692.797 669.003 L 574.778 669.003 Z " fill="rgb(96,152,1)"/><path d=" M 633.787 669.003 L 574.778 669.003 L 604.283 617.899 L 633.787 566.794 L 633.787 669.003 L 633.787 669.003 L 633.787 669.003 Z " fill="rgb(80,132,4)"/></g><g><path d=" M 582.939 602.926 L 633.787 514.855 L 684.636 602.926 L 582.939 602.926 Z " fill="rgb(96,152,1)"/><path d=" M 633.787 602.926 L 582.939 602.926 L 608.363 558.89 L 633.787 514.855 L 633.787 602.926 L 633.787 602.926 L 633.787 602.926 Z " fill="rgb(80,132,4)"/><path d=" M 582.939 602.926 L 633.787 514.855 L 684.636 602.926 L 582.939 602.926 Z " fill="rgb(96,152,1)"/><path d=" M 633.787 602.926 L 582.939 602.926 L 608.363 558.89 L 633.787 514.855 L 633.787 602.926 L 633.787 602.926 L 633.787 602.926 Z " fill="rgb(80,132,4)"/></g></g><path d=" M 655.349 603.796 L 612.42 603.796 L 613.147 602.825 L 613.147 602.825 L 654.38 602.825 L 653.41 601.855 L 655.349 603.796 L 655.349 603.796 Z " fill="rgb(80,121,9)"/><path d=" M 664.081 669.765 L 603.931 669.765 L 604.95 668.795 L 604.95 668.795 L 662.721 668.795 L 661.362 667.825 L 664.081 669.765 L 664.081 669.765 Z " fill="rgb(80,121,9)"/></g><g><g><rect x="169.403" y="337.449" width="42.573" height="67.649" transform="matrix(1,0,0,1,0,0)" fill="rgb(156,75,40)"/><rect x="169.403" y="337.449" width="21.549" height="67.649" transform="matrix(1,0,0,1,0,0)" fill="rgb(108,59,25)"/><g><g><path d=" M 100 365.686 L 190.689 208.608 L 281.379 365.686 L 100 365.686 Z " fill="rgb(96,152,1)"/><path d=" M 190.689 365.686 L 100 365.686 L 145.345 287.147 L 190.689 208.608 L 190.689 365.686 L 190.689 365.686 L 190.689 365.686 Z " fill="rgb(80,132,4)"/><path d=" M 100 365.686 L 190.689 208.608 L 281.379 365.686 L 100 365.686 Z " fill="rgb(96,152,1)"/><path d=" M 190.689 365.686 L 100 365.686 L 145.345 287.147 L 190.689 208.608 L 190.689 365.686 L 190.689 365.686 L 190.689 365.686 Z " fill="rgb(80,132,4)"/></g><g><path d=" M 119.745 270.049 L 190.689 147.168 L 261.634 270.049 L 119.745 270.049 Z " fill="rgb(96,152,1)"/><path d=" M 190.689 270.049 L 119.745 270.049 L 155.218 208.608 L 190.689 147.168 L 190.689 270.049 L 190.689 270.049 L 190.689 270.049 Z " fill="rgb(80,132,4)"/><path d=" M 119.745 270.049 L 190.689 147.168 L 261.634 270.049 L 119.745 270.049 Z " fill="rgb(96,152,1)"/><path d=" M 190.689 270.049 L 119.745 270.049 L 155.218 208.608 L 190.689 147.168 L 190.689 270.049 L 190.689 270.049 L 190.689 270.049 Z " fill="rgb(80,132,4)"/></g><g><path d=" M 129.556 190.608 L 190.689 84.724 L 251.822 190.608 L 129.556 190.608 Z " fill="rgb(96,152,1)"/><path d=" M 190.689 190.608 L 129.556 190.608 L 160.123 137.665 L 190.689 84.724 L 190.689 190.608 L 190.689 190.608 L 190.689 190.608 Z " fill="rgb(80,132,4)"/><path d=" M 129.556 190.608 L 190.689 84.724 L 251.822 190.608 L 129.556 190.608 Z " fill="rgb(96,152,1)"/><path d=" M 190.689 190.608 L 129.556 190.608 L 160.123 137.665 L 190.689 84.724 L 190.689 190.608 L 190.689 190.608 L 190.689 190.608 Z " fill="rgb(80,132,4)"/></g></g><path d=" M 216.611 191.653 L 165 191.653 L 165.874 190.486 L 165.874 190.486 L 215.447 190.486 L 214.28 189.32 L 216.611 191.653 L 216.611 191.653 Z " fill="rgb(80,121,9)"/><path d=" M 227.11 270.965 L 154.795 270.965 L 156.02 269.798 L 156.02 269.798 L 225.475 269.798 L 223.841 268.632 L 227.11 270.965 L 227.11 270.965 Z " fill="rgb(80,121,9)"/></g><g><rect x="248.01" y="358.789" width="25.089" height="39.867" transform="matrix(1,0,0,1,0,0)" fill="rgb(156,75,40)"/><rect x="248.01" y="358.789" width="12.699" height="39.867" transform="matrix(1,0,0,1,0,0)" fill="rgb(108,59,25)"/><g><g><path d=" M 207.109 375.43 L 260.554 282.86 L 314 375.43 L 207.109 375.43 Z " fill="rgb(96,152,1)"/><path d=" M 260.554 375.43 L 207.109 375.43 L 233.832 329.145 L 260.554 282.86 L 260.554 375.43 L 260.554 375.43 L 260.554 375.43 Z " fill="rgb(80,132,4)"/><path d=" M 207.109 375.43 L 260.554 282.86 L 314 375.43 L 207.109 375.43 Z " fill="rgb(96,152,1)"/><path d=" M 260.554 375.43 L 207.109 375.43 L 233.832 329.145 L 260.554 282.86 L 260.554 375.43 L 260.554 375.43 L 260.554 375.43 Z " fill="rgb(80,132,4)"/></g><g><path d=" M 218.746 319.068 L 260.554 246.652 L 302.364 319.068 L 218.746 319.068 Z " fill="rgb(96,152,1)"/><path d=" M 260.554 319.068 L 218.746 319.068 L 239.65 282.86 L 260.554 246.652 L 260.554 319.068 L 260.554 319.068 L 260.554 319.068 Z " fill="rgb(80,132,4)"/><path d=" M 218.746 319.068 L 260.554 246.652 L 302.364 319.068 L 218.746 319.068 Z " fill="rgb(96,152,1)"/><path d=" M 260.554 319.068 L 218.746 319.068 L 239.65 282.86 L 260.554 246.652 L 260.554 319.068 L 260.554 319.068 L 260.554 319.068 Z " fill="rgb(80,132,4)"/></g><g><path d=" M 224.527 272.252 L 260.554 209.852 L 296.582 272.252 L 224.527 272.252 Z " fill="rgb(96,152,1)"/><path d=" M 260.554 272.252 L 224.527 272.252 L 242.541 241.051 L 260.554 209.852 L 260.554 272.252 L 260.554 272.252 L 260.554 272.252 Z " fill="rgb(80,132,4)"/><path d=" M 224.527 272.252 L 260.554 209.852 L 296.582 272.252 L 224.527 272.252 Z " fill="rgb(96,152,1)"/><path d=" M 260.554 272.252 L 224.527 272.252 L 242.541 241.051 L 260.554 209.852 L 260.554 272.252 L 260.554 272.252 L 260.554 272.252 Z " fill="rgb(80,132,4)"/></g></g><path d=" M 275.831 272.868 L 245.415 272.868 L 245.93 272.18 L 245.93 272.18 L 275.145 272.18 L 274.457 271.493 L 275.831 272.868 L 275.831 272.868 Z " fill="rgb(80,121,9)"/><path d=" M 282.018 319.608 L 239.401 319.608 L 240.123 318.921 L 240.123 318.921 L 281.055 318.921 L 280.091 318.233 L 282.018 319.608 L 282.018 319.608 Z " fill="rgb(80,121,9)"/></g></g><g><path d=" M 941.256 697.33 C 953.361 714.099 967.744 724.212 984.36 727.623 L 979.038 735.196 L 935.932 704.904 L 941.256 697.33 L 941.256 697.33 Z " fill="rgb(108,59,25)"/><path d=" M 936.762 610.41 C 949.778 643.32 966.439 664.095 986.723 672.709 L 976.951 680.546 L 926.99 618.247 L 936.762 610.41 L 936.762 610.41 Z " fill="rgb(108,59,25)"/><circle vector-effect="non-scaling-stroke" cx="958.4218144615749" cy="616.5096882195908" r="28.968101289859646" fill="rgb(81,132,13)"/><circle vector-effect="non-scaling-stroke" cx="997.5678972857099" cy="597.4027153440888" r="28.96810128985959" fill="rgb(81,132,13)"/><path d=" M 1037.892 611.496 L 1049.121 619.281 C 1032.357 649.571 1014.974 674.677 996.922 694.556 L 985.695 686.77 C 1016.136 659.51 1033.55 634.434 1037.892 611.496 Z " fill="rgb(108,59,25)"/><path d=" M 968.6 597.402 L 992.87 597.402 C 1003.305 679.605 1003.322 740.689 992.87 780.606 L 968.6 780.606 C 977.343 738.329 977.35 677.268 968.6 597.402 Z " fill="rgb(108,59,25)"/><path d=" M 980.735 597.402 L 992.87 597.402 C 996.006 616.08 998.399 633.766 1000.049 650.458 C 1004.115 691.621 1003.658 726.742 998.668 755.809 C 994.144 769.871 1000.212 778.153 1000.856 780.606 L 980.735 780.606 C 990.812 733.942 990.82 672.883 980.735 597.402 Z " fill="rgb(156,75,40)"/><circle vector-effect="non-scaling-stroke" cx="927.8878698587497" cy="604.4490102524325" r="28.968101289859646" fill="rgb(81,132,13)"/><circle vector-effect="non-scaling-stroke" cx="933.1637855571188" cy="706.0060001458482" r="10.409202406065674" fill="rgb(81,132,13)"/><circle vector-effect="non-scaling-stroke" cx="941.2083074250224" cy="694.3160511746868" r="10.409202406065674" fill="rgb(81,132,13)"/><circle vector-effect="non-scaling-stroke" cx="928.6264955746732" cy="690.9549570734572" r="10.409202406065674" fill="rgb(81,132,13)"/><circle vector-effect="non-scaling-stroke" cx="921.855717478679" cy="701.3641594795231" r="10.409202406065674" fill="rgb(81,132,13)"/><circle vector-effect="non-scaling-stroke" cx="1037.496901766327" cy="606.95620178184" r="19.41461485210874" fill="rgb(81,132,13)"/><circle vector-effect="non-scaling-stroke" cx="1066.4650030561866" cy="604.4490102524333" r="19.414614852108798" fill="rgb(81,132,13)"/><circle vector-effect="non-scaling-stroke" cx="920.0586532939234" cy="568.4346140542284" r="28.968101289859646" fill="rgb(94,153,1)"/><circle vector-effect="non-scaling-stroke" cx="958.4218144615749" cy="575.4809089625728" r="28.968101289859646" fill="rgb(94,153,1)"/><circle vector-effect="non-scaling-stroke" cx="997.5678972857099" cy="546.6779755200645" r="28.96810128985959" fill="rgb(94,153,1)"/><circle vector-effect="non-scaling-stroke" cx="1037.4969017663268" cy="575.6460768099241" r="28.96810128985959" fill="rgb(94,153,1)"/><circle vector-effect="non-scaling-stroke" cx="989.1141856243581" cy="579.9521459205791" r="28.968101289859646" fill="rgb(94,153,1)"/><circle vector-effect="non-scaling-stroke" cx="1076.018489493937" cy="575.4809089625728" r="28.968101289859533" fill="rgb(94,153,1)"/><circle vector-effect="non-scaling-stroke" cx="1054.7211782089462" cy="546.6779755200645" r="14.484050644929766" fill="rgb(94,153,1)"/><circle vector-effect="non-scaling-stroke" cx="1031.6249893427066" cy="552.5498879436848" r="23.096188866239345" fill="rgb(94,153,1)"/><circle vector-effect="non-scaling-stroke" cx="949.0267545837829" cy="539.4665127643694" r="28.968101289859646" fill="rgb(94,153,1)"/><circle vector-effect="non-scaling-stroke" cx="915.7525841832678" cy="566.2510169321322" r="13.701128988447067" fill="rgb(128,178,29)"/><ellipse vector-effect="non-scaling-stroke" cx="921.4287661927674" cy="568.4346140542289" rx="12.331016089602372" ry="13.701128988447067" fill="rgb(94,153,1)"/></g><g><path d=" M 278.135 649.459 L 286.344 660.382 C 260.901 683.859 236.501 702.221 213.111 715.41 L 204.904 704.487 C 242.376 688.19 266.795 669.866 278.135 649.459 Z " fill="rgb(108,59,25)"/><path d=" M 260.759 638.917 C 264.131 628.746 275.126 623.226 285.297 626.597 C 295.468 629.969 300.988 640.964 297.616 651.134 C 294.245 661.305 283.25 666.826 273.079 663.454 C 262.908 660.083 257.388 649.088 260.759 638.917 Z " fill="rgb(81,132,13)"/><path d=" M 289.045 645.652 C 292.416 635.481 303.411 629.961 313.582 633.332 C 323.753 636.703 329.274 647.698 325.902 657.869 C 322.531 668.04 311.536 673.561 301.365 670.189 C 291.194 666.818 285.674 655.823 289.045 645.652 Z " fill="rgb(81,132,13)"/><path d=" M 261.543 606.191 C 266.573 591.015 282.978 582.779 298.154 587.809 C 313.33 592.84 321.567 609.245 316.536 624.421 C 311.506 639.596 295.101 647.833 279.925 642.803 C 264.749 637.772 256.512 621.367 261.543 606.191 Z " fill="rgb(94,153,1)"/><path d=" M 298.16 618.155 C 303.19 602.979 319.595 594.742 334.771 599.773 C 349.947 604.803 358.184 621.208 353.153 636.384 C 348.123 651.56 331.718 659.797 316.542 654.766 C 301.366 649.736 293.129 633.331 298.16 618.155 Z " fill="rgb(94,153,1)"/><path d=" M 300.755 588.671 C 303.27 581.083 311.473 576.965 319.061 579.48 C 326.649 581.995 330.767 590.198 328.252 597.786 C 325.737 605.374 317.534 609.492 309.946 606.977 C 302.358 604.462 298.24 596.259 300.755 588.671 Z " fill="rgb(94,153,1)"/><path d=" M 268.81 584.268 C 272.82 572.169 285.9 565.601 298 569.612 C 310.099 573.623 316.667 586.703 312.656 598.802 C 308.645 610.902 295.565 617.469 283.466 613.458 C 271.366 609.448 264.799 596.368 268.81 584.268 Z " fill="rgb(94,153,1)"/></g><g><g><path d=" M 254.287 717.943 C 242.182 734.712 227.799 744.825 211.183 748.236 L 216.505 755.809 L 259.611 725.516 L 254.287 717.943 L 254.287 717.943 Z " fill="rgb(108,59,25)"/><circle vector-effect="non-scaling-stroke" cx="262.3792231612329" cy="726.6187525030371" r="10.40920240606573" fill="rgb(81,132,13)"/><circle vector-effect="non-scaling-stroke" cx="254.33470129332926" cy="714.9288035318756" r="10.40920240606573" fill="rgb(81,132,13)"/><circle vector-effect="non-scaling-stroke" cx="266.9165131436785" cy="711.567709430646" r="10.40920240606573" fill="rgb(81,132,13)"/><circle vector-effect="non-scaling-stroke" cx="273.6872912396727" cy="721.9769118367119" r="10.40920240606573" fill="rgb(81,132,13)"/></g><circle vector-effect="non-scaling-stroke" cx="233.8724051594378" cy="583.701578250752" r="28.968101289859632" fill="rgb(81,132,13)"/><circle vector-effect="non-scaling-stroke" cx="218.67178671625715" cy="608.9202391055494" r="28.968101289859618" fill="rgb(81,132,13)"/><circle vector-effect="non-scaling-stroke" cx="195.50935468215167" cy="599.9681012898596" r="28.968101289859618" fill="rgb(81,132,13)"/><circle vector-effect="non-scaling-stroke" cx="165.9451459766745" cy="588.9681012898598" r="28.968101289859618" fill="rgb(81,132,13)"/><path d=" M 195.509 597.402 L 219.78 597.402 C 230.214 679.605 230.231 740.689 219.78 780.606 L 195.509 780.606 C 204.252 738.329 204.26 677.268 195.509 597.402 Z " fill="rgb(108,59,25)"/><path d=" M 207.645 597.402 L 219.78 597.402 C 222.915 616.08 225.309 633.766 226.958 650.458 C 231.025 691.621 230.568 726.742 225.577 755.809 C 221.053 769.871 227.121 778.153 227.765 780.606 L 207.645 780.606 C 217.722 733.942 217.729 672.883 207.645 597.402 Z " fill="rgb(156,75,40)"/><circle vector-effect="non-scaling-stroke" cx="146.9681012898591" cy="568.434605949339" r="28.968101289859618" fill="rgb(94,153,1)"/><circle vector-effect="non-scaling-stroke" cx="185.33126245751058" cy="575.4809008576834" r="28.968101289859618" fill="rgb(94,153,1)"/><circle vector-effect="non-scaling-stroke" cx="224.47734528164557" cy="546.677967415175" r="28.968101289859618" fill="rgb(94,153,1)"/><circle vector-effect="non-scaling-stroke" cx="216.02363362029377" cy="579.9521378156898" r="28.968101289859618" fill="rgb(94,153,1)"/><circle vector-effect="non-scaling-stroke" cx="229.69898860245118" cy="575.4809008576833" r="28.968101289859618" fill="rgb(94,153,1)"/><g><path d=" M 163.671 646.127 C 176.688 679.038 193.348 699.812 213.632 708.427 L 203.86 716.263 L 153.899 653.965 L 163.671 646.127 L 163.671 646.127 Z " fill="rgb(108,59,25)"/><circle vector-effect="non-scaling-stroke" cx="179.10280846459713" cy="653.0673535873692" r="28.968101289859618" fill="rgb(81,132,13)"/><circle vector-effect="non-scaling-stroke" cx="154.79731785468536" cy="640.1666058848787" r="28.968101289859618" fill="rgb(81,132,13)"/><circle vector-effect="non-scaling-stroke" cx="175.93620257971853" cy="640.1666058848787" r="28.968101289859618" fill="rgb(94,153,1)"/><circle vector-effect="non-scaling-stroke" cx="146.96810128985888" cy="665.1277833367342" r="16.067353587369126" fill="rgb(94,153,1)"/><circle vector-effect="non-scaling-stroke" cx="163.67127608070996" cy="669.1347071747383" r="16.067353587369126" fill="rgb(94,153,1)"/><circle vector-effect="non-scaling-stroke" cx="147.60392249334083" cy="614.0673535873691" r="16.067353587369126" fill="rgb(94,153,1)"/><circle vector-effect="non-scaling-stroke" cx="146.96810128985888" cy="636.159930264668" r="16.067353587369126" fill="rgb(94,153,1)"/><circle vector-effect="non-scaling-stroke" cx="192.00355616708762" cy="624.0992522975095" r="16.067353587369126" fill="rgb(94,153,1)"/></g><circle vector-effect="non-scaling-stroke" cx="175.93620257971853" cy="539.4665046594799" r="28.968101289859618" fill="rgb(94,153,1)"/><circle vector-effect="non-scaling-stroke" cx="142.6620321792034" cy="566.2510088272427" r="13.701128988447067" fill="rgb(128,178,29)"/><ellipse vector-effect="non-scaling-stroke" cx="148.338214188703" cy="568.4346059493394" rx="12.331016089602429" ry="13.701128988447067" fill="rgb(94,153,1)"/></g><g><path d=" M 1016.041 1001.865 C 1020.433 994.324 1022.937 985.559 1022.937 976.212 C 1022.937 947.896 999.949 924.907 971.631 924.907 C 943.315 924.907 920.326 947.896 920.326 976.212 C 920.326 985.559 922.831 994.324 927.224 1001.865 L 1016.041 1001.865 L 1016.041 1001.865 L 1016.041 1001.865 Z " fill="rgb(108,165,26)"/><path d=" M 1073.091 1001.865 C 1074.813 997.416 1075.751 992.582 1075.751 987.53 C 1075.751 965.459 1057.834 947.541 1035.763 947.541 C 1013.694 947.541 995.775 965.459 995.775 987.53 C 995.775 992.582 996.715 997.416 998.437 1001.865 L 1073.091 1001.865 L 1073.091 1001.865 L 1073.091 1001.865 Z " fill="rgb(78,134,1)"/><circle vector-effect="non-scaling-stroke" cx="947.4883555253067" cy="955.8403468225907" r="7.544915404651647" fill="rgb(130,189,48)"/></g><g><path d=" M 696.28 272.518 L 706.402 279.358 L 663.648 342.627 L 653.524 335.787 C 670.959 323.946 685.22 302.867 696.28 272.518 Z " fill="rgb(108,59,25)"/><path d=" M 561.193 268.922 L 551.069 275.762 L 593.824 339.031 L 603.947 332.189 C 586.512 320.35 572.25 299.271 561.193 268.922 Z " fill="rgb(108,59,25)"/><path d=" M 656.45 268.922 C 652.353 312.47 660.884 357.865 682.041 405.097 L 573.1 405.097 C 591.564 364.184 598.087 318.8 592.641 268.922 L 656.45 268.922 L 656.45 268.922 L 656.45 268.922 Z " fill="rgb(108,59,25)"/><path d=" M 657.694 268.922 C 655.312 309.376 663.452 354.782 682.041 405.097 L 627.57 405.097 L 627.57 268.922 L 657.694 268.922 L 657.694 268.922 L 657.694 268.922 Z " fill="rgb(156,75,40)"/><circle vector-effect="non-scaling-stroke" cx="570.7338672903749" cy="260.22959002799143" r="47.34309232570911" fill="rgb(78,134,1)"/><circle vector-effect="non-scaling-stroke" cx="634.6972419310748" cy="242.7046566098976" r="47.34309232570922" fill="rgb(78,134,1)"/><circle vector-effect="non-scaling-stroke" cx="698.07589778646" cy="256.15706595696315" r="43.270568254680484" fill="rgb(78,134,1)"/><circle vector-effect="non-scaling-stroke" cx="549.8621814263531" cy="203.5066124262454" r="62.90741698472402" fill="rgb(94,153,0)"/><circle vector-effect="non-scaling-stroke" cx="717.7127465165031" cy="202.3876856057542" r="62.90741698472414" fill="rgb(94,153,0)"/><circle vector-effect="non-scaling-stroke" cx="563.6447768042929" cy="130.12360817883277" r="42.03573112070194" fill="rgb(94,153,0)"/><circle vector-effect="non-scaling-stroke" cx="560.0483858812046" cy="130.12360817883334" r="27.305763724160556" fill="rgb(115,179,13)"/><circle vector-effect="non-scaling-stroke" cx="578.3747442008339" cy="130.12360817883285" r="27.305763724160556" fill="rgb(94,153,0)"/><circle vector-effect="non-scaling-stroke" cx="612.7695984110771" cy="107.94334959685648" r="42.03573112070194" fill="rgb(94,153,0)"/><path d=" M 588.688 146.387 C 594.244 125.649 615.591 113.325 636.329 118.881 C 657.067 124.437 669.391 145.785 663.835 166.523 C 658.279 187.26 636.931 199.586 616.193 194.028 C 595.456 188.472 583.13 167.125 588.688 146.387 Z " fill="rgb(94,153,0)"/><circle vector-effect="non-scaling-stroke" cx="647.4238796530386" cy="212.88649770228233" r="49.17333247717545" fill="rgb(94,153,0)"/><circle vector-effect="non-scaling-stroke" cx="668.8046310259401" cy="130.92503308036893" r="41.234306219166115" fill="rgb(94,153,0)"/><circle vector-effect="non-scaling-stroke" cx="706.4022082575068" cy="130.92503308036893" r="41.234306219166115" fill="rgb(94,153,0)"/><circle vector-effect="non-scaling-stroke" cx="629.0946965003916" cy="337.0090421296567" r="11.017736884307169" fill="rgb(91,50,21)"/></g><g><path d=" M 1280.241 703.524 C 1301.697 722.999 1324.166 731.792 1347.575 729.826 L 1342.2 743.585 C 1314.365 730.239 1291.945 721.496 1274.866 717.283 L 1280.241 703.524 L 1280.241 703.524 Z " fill="rgb(108,59,25)"/><path d=" M 1319.719 688.525 C 1319.776 703.66 1324.059 717.547 1332.491 730.113 L 1323.994 732.723 L 1311.221 691.134 L 1319.719 688.525 L 1319.719 688.525 Z " fill="rgb(108,59,25)"/><path d=" M 1360.023 725.438 L 1419.421 687.193 L 1424.112 694.478 C 1408.425 697.499 1388.651 710.271 1364.714 732.723 L 1360.023 725.438 L 1360.023 725.438 Z " fill="rgb(108,59,25)"/><path d=" M 1392.78 704.244 C 1396.713 696.714 1397.012 686.951 1393.603 674.882 L 1400.1 675.065 C 1397.857 687.671 1397.607 697.482 1399.276 704.427 L 1392.78 704.244 L 1392.78 704.244 Z " fill="rgb(108,59,25)"/><path d=" M 1301.958 628.591 L 1306.775 620.002 C 1321.183 633.95 1334.806 641.6 1347.575 642.884 L 1342.757 651.473 L 1301.958 628.591 L 1301.958 628.591 Z " fill="rgb(108,59,25)"/><path d=" M 1401.512 615.795 L 1403.923 620.088 C 1385.556 634.031 1369.861 642.919 1356.692 646.602 L 1354.282 642.309 C 1366.73 639.595 1382.497 630.781 1401.512 615.795 Z " fill="rgb(108,59,25)"/><path d=" M 1363.219 578.866 C 1362.893 650.121 1364.245 720.704 1367.27 790.596 L 1335.265 790.596 C 1338.995 722.835 1340.614 652.258 1340.121 578.866 L 1363.219 578.866 L 1363.219 578.866 L 1363.219 578.866 Z " fill="rgb(108,59,25)"/><path d=" M 1363.219 578.866 C 1363.154 643.191 1364.521 713.832 1367.27 790.596 L 1351.267 790.596 L 1351.267 578.866 L 1363.219 578.866 L 1363.219 578.866 L 1363.219 578.866 Z " fill="rgb(145,81,38)"/><g><circle vector-effect="non-scaling-stroke" cx="1316.3895861040467" cy="567.1711442617071" r="27.90235323994807" fill="rgb(76,136,0)"/><circle vector-effect="non-scaling-stroke" cx="1344.2919393439927" cy="577.6345267266867" r="20.926764929960882" fill="rgb(76,136,0)"/><circle vector-effect="non-scaling-stroke" cx="1323.3651744140313" cy="535.7809968667649" r="20.926764929960882" fill="rgb(76,136,0)"/><circle vector-effect="non-scaling-stroke" cx="1344.2919393439927" cy="546.2443793317454" r="20.926764929960882" fill="rgb(76,136,0)"/><circle vector-effect="non-scaling-stroke" cx="1351.26752765398" cy="539.2687910217596" r="20.926764929960882" fill="rgb(76,136,0)"/><circle vector-effect="non-scaling-stroke" cx="1372.1942925839412" cy="535.7809968667649" r="20.926764929960882" fill="rgb(76,136,0)"/><circle vector-effect="non-scaling-stroke" cx="1372.1942925839412" cy="567.171144261708" r="20.926764929960882" fill="rgb(76,136,0)"/><circle vector-effect="non-scaling-stroke" cx="1393.1210575139019" cy="556.7077617967258" r="20.926764929960882" fill="rgb(76,136,0)"/><circle vector-effect="non-scaling-stroke" cx="1393.1210575139019" cy="574.1467325716944" r="20.926764929960882" fill="rgb(76,136,0)"/><circle vector-effect="non-scaling-stroke" cx="1316.3895861040437" cy="567.171144261708" r="20.926764929960882" fill="rgb(108,170,27)"/><circle vector-effect="non-scaling-stroke" cx="1323.3651744140334" cy="567.171144261708" r="20.926764929960882" fill="rgb(76,136,0)"/></g><g><path d=" M 1383.469 600.917 C 1388.33 597.223 1395.274 598.169 1398.968 603.029 C 1402.662 607.89 1401.716 614.834 1396.855 618.528 C 1391.995 622.222 1385.051 621.276 1381.357 616.415 C 1377.663 611.555 1378.609 604.61 1383.469 600.917 Z " fill="rgb(76,136,0)"/><path d=" M 1388.533 614.434 C 1392.177 611.663 1397.386 612.373 1400.157 616.018 C 1402.927 619.663 1402.218 624.872 1398.573 627.642 C 1394.928 630.413 1389.719 629.702 1386.949 626.058 C 1384.178 622.412 1384.888 617.204 1388.533 614.434 Z " fill="rgb(76,136,0)"/><path d=" M 1396.723 597.79 C 1400.367 595.019 1405.576 595.729 1408.346 599.374 C 1411.117 603.019 1410.406 608.228 1406.762 610.998 C 1403.116 613.769 1397.909 613.059 1395.138 609.414 C 1392.368 605.768 1393.077 600.56 1396.723 597.79 Z " fill="rgb(76,136,0)"/><path d=" M 1398.44 606.904 C 1402.084 604.134 1407.293 604.843 1410.063 608.489 C 1412.834 612.133 1412.125 617.342 1408.479 620.112 C 1404.835 622.883 1399.626 622.174 1396.855 618.528 C 1394.085 614.882 1394.794 609.675 1398.44 606.904 Z " fill="rgb(76,136,0)"/><path d=" M 1402.315 607.432 C 1405.959 604.662 1411.168 605.371 1413.939 609.017 C 1416.709 612.661 1416 617.87 1412.354 620.64 C 1408.708 623.411 1403.501 622.702 1400.73 619.056 C 1397.96 615.41 1398.669 610.203 1402.315 607.432 Z " fill="rgb(76,136,0)"/><path d=" M 1408.435 613.2 C 1412.079 610.429 1417.288 611.138 1420.059 614.784 C 1422.829 618.43 1422.12 623.637 1418.475 626.408 C 1414.829 629.178 1409.621 628.469 1406.851 624.823 C 1404.08 621.179 1404.79 615.97 1408.435 613.2 Z " fill="rgb(76,136,0)"/><path d=" M 1398.529 620.729 C 1402.173 617.959 1407.382 618.668 1410.152 622.314 C 1412.923 625.958 1412.214 631.167 1408.568 633.938 C 1404.922 636.708 1399.715 635.999 1396.944 632.353 C 1394.174 628.709 1394.883 623.5 1398.529 620.729 Z " fill="rgb(76,136,0)"/><path d=" M 1406.851 624.823 C 1410.495 622.053 1415.704 622.764 1418.475 626.408 C 1421.245 630.053 1420.536 635.262 1416.89 638.033 C 1413.244 640.803 1408.037 640.093 1405.266 636.449 C 1402.496 632.803 1403.205 627.594 1406.851 624.823 Z " fill="rgb(76,136,0)"/><path d=" M 1401.348 629.006 C 1404.992 626.236 1410.201 626.946 1412.971 630.591 C 1415.742 634.236 1415.031 639.445 1411.387 642.216 C 1407.741 644.986 1402.532 644.276 1399.762 640.631 C 1396.991 636.986 1397.702 631.777 1401.348 629.006 Z " fill="rgb(76,136,0)"/><path d=" M 1386.816 605.32 C 1390.46 602.549 1395.669 603.258 1398.44 606.904 C 1401.21 610.548 1400.5 615.757 1396.855 618.528 C 1393.21 621.298 1388.002 620.589 1385.232 616.943 C 1382.461 613.298 1383.17 608.09 1386.816 605.32 Z " fill="rgb(76,136,0)"/></g><g><path d=" M 1300.261 680.173 C 1302.029 676.088 1306.781 674.208 1310.866 675.975 C 1314.951 677.743 1316.831 682.495 1315.062 686.58 C 1313.295 690.665 1308.544 692.545 1304.459 690.776 C 1300.374 689.009 1298.494 684.258 1300.261 680.173 Z " fill="rgb(76,136,0)"/><path d=" M 1308.311 686.953 C 1309.638 683.889 1313.2 682.479 1316.264 683.805 C 1319.328 685.131 1320.738 688.694 1319.411 691.757 C 1318.086 694.822 1314.522 696.231 1311.459 694.907 C 1308.396 693.58 1306.985 690.016 1308.311 686.953 Z " fill="rgb(76,136,0)"/><path d=" M 1307.566 673.449 C 1308.892 670.386 1312.455 668.975 1315.52 670.301 C 1318.583 671.627 1319.992 675.19 1318.667 678.253 C 1317.341 681.318 1313.777 682.728 1310.714 681.403 C 1307.65 680.076 1306.239 676.512 1307.566 673.449 Z " fill="rgb(76,136,0)"/><path d=" M 1311.915 678.626 C 1313.241 675.563 1316.805 674.152 1319.869 675.478 C 1322.932 676.805 1324.343 680.369 1323.016 683.432 C 1321.69 686.495 1318.126 687.906 1315.062 686.58 C 1311.999 685.254 1310.588 681.691 1311.915 678.626 Z " fill="rgb(76,136,0)"/><path d=" M 1314.566 677.577 C 1315.892 674.514 1319.457 673.103 1322.52 674.43 C 1325.583 675.756 1326.994 679.319 1325.668 682.383 C 1324.341 685.447 1320.777 686.856 1317.714 685.531 C 1314.65 684.205 1313.24 680.641 1314.566 677.577 Z " fill="rgb(76,136,0)"/><path d=" M 1320.517 679.055 C 1321.844 675.991 1325.406 674.581 1328.47 675.907 C 1331.534 677.233 1332.944 680.798 1331.619 683.861 C 1330.293 686.924 1326.728 688.335 1323.665 687.009 C 1320.602 685.682 1319.191 682.118 1320.517 679.055 Z " fill="rgb(76,136,0)"/><path d=" M 1316.912 687.381 C 1318.239 684.318 1321.803 682.907 1324.866 684.233 C 1327.929 685.56 1329.34 689.123 1328.014 692.186 C 1326.688 695.251 1323.125 696.66 1320.06 695.334 C 1316.997 694.009 1315.588 690.444 1316.912 687.381 Z " fill="rgb(76,136,0)"/><path d=" M 1323.665 687.009 C 1324.992 683.945 1328.554 682.534 1331.619 683.861 C 1334.682 685.187 1336.092 688.75 1334.767 691.813 C 1333.44 694.878 1329.876 696.287 1326.813 694.962 C 1323.75 693.636 1322.339 690.072 1323.665 687.009 Z " fill="rgb(76,136,0)"/><path d=" M 1321.663 691.634 C 1322.989 688.57 1326.552 687.159 1329.617 688.486 C 1332.68 689.812 1334.091 693.376 1332.764 696.44 C 1331.438 699.503 1327.874 700.914 1324.81 699.587 C 1321.747 698.261 1320.336 694.697 1321.663 691.634 Z " fill="rgb(76,136,0)"/><path d=" M 1303.962 681.774 C 1305.287 678.711 1308.851 677.301 1311.915 678.626 C 1314.978 679.953 1316.389 683.517 1315.062 686.58 C 1313.736 689.643 1310.173 691.054 1307.11 689.728 C 1304.045 688.401 1302.636 684.839 1303.962 681.774 Z " fill="rgb(76,136,0)"/></g><g><path d=" M 1265.933 625.229 C 1259.224 620.6 1257.535 611.392 1262.167 604.681 C 1266.798 597.972 1276.004 596.284 1282.714 600.915 C 1289.425 605.546 1291.112 614.752 1286.481 621.463 C 1281.851 628.173 1272.643 629.86 1265.933 625.229 Z " fill="rgb(76,136,0)"/><path d=" M 1272.497 641.725 C 1265.787 637.094 1264.1 627.887 1268.731 621.178 C 1273.36 614.467 1282.568 612.779 1289.278 617.41 C 1295.987 622.041 1297.676 631.249 1293.045 637.958 C 1288.414 644.668 1279.207 646.357 1272.497 641.725 Z " fill="rgb(76,136,0)"/><path d=" M 1286.481 621.463 C 1279.772 616.832 1278.083 607.624 1282.714 600.915 C 1287.345 594.205 1296.552 592.516 1303.262 597.147 C 1309.973 601.778 1311.66 610.986 1307.03 617.695 C 1302.399 624.405 1293.191 626.094 1286.481 621.463 Z " fill="rgb(76,136,0)"/><path d=" M 1304.718 634.048 C 1298.008 629.418 1296.319 620.21 1300.95 613.5 C 1305.581 606.791 1314.789 605.102 1321.498 609.733 C 1328.209 614.365 1329.897 623.571 1325.266 630.281 C 1320.635 636.992 1311.427 638.679 1304.718 634.048 Z " fill="rgb(76,136,0)"/><path d=" M 1291.504 648.86 C 1284.794 644.229 1283.107 635.023 1287.738 628.312 C 1292.367 621.602 1301.575 619.915 1308.286 624.544 C 1314.994 629.175 1316.683 638.383 1312.052 645.093 C 1307.421 651.802 1298.215 653.491 1291.504 648.86 Z " fill="rgb(76,136,0)"/></g><g><path d=" M 1267.383 727.313 C 1261.186 732.61 1251.854 731.878 1246.558 725.681 C 1241.261 719.483 1241.993 710.15 1248.19 704.854 C 1254.388 699.557 1263.721 700.289 1269.017 706.488 C 1274.314 712.685 1273.582 722.017 1267.383 727.313 Z " fill="rgb(76,136,0)"/><path d=" M 1285.011 725.204 C 1278.814 730.5 1269.481 729.769 1264.184 723.571 C 1258.887 717.372 1259.619 708.041 1265.818 702.744 C 1272.016 697.448 1281.349 698.18 1286.645 704.377 C 1291.942 710.576 1291.21 719.907 1285.011 725.204 Z " fill="rgb(76,136,0)"/><path d=" M 1269.017 706.488 C 1262.818 711.785 1253.487 711.053 1248.19 704.854 C 1242.894 698.656 1243.626 689.325 1249.823 684.028 C 1256.022 678.732 1265.353 679.464 1270.65 685.661 C 1275.947 691.858 1275.215 701.191 1269.017 706.488 Z " fill="rgb(76,136,0)"/><path d=" M 1285.862 692.092 C 1279.663 697.389 1270.332 696.657 1265.035 690.46 C 1259.739 684.261 1260.47 674.929 1266.668 669.633 C 1272.867 664.336 1282.198 665.068 1287.495 671.267 C 1292.791 677.464 1292.059 686.796 1285.862 692.092 Z " fill="rgb(76,136,0)"/><path d=" M 1296.786 708.665 C 1290.588 713.962 1281.255 713.23 1275.959 707.033 C 1270.662 700.834 1271.394 691.502 1277.593 686.206 C 1283.79 680.909 1293.122 681.641 1298.418 687.838 C 1303.715 694.037 1302.983 703.369 1296.786 708.665 Z " fill="rgb(76,136,0)"/></g><g><path d=" M 1379.597 658.492 C 1381.183 653.998 1386.119 651.636 1390.613 653.222 C 1395.106 654.808 1397.466 659.744 1395.881 664.238 C 1394.295 668.732 1389.359 671.093 1384.865 669.507 C 1380.371 667.921 1378.011 662.986 1379.597 658.492 Z " fill="rgb(108,165,26)"/><path d=" M 1391.785 658.548 C 1393.371 654.052 1398.307 651.692 1402.801 653.278 C 1407.294 654.864 1409.656 659.8 1408.07 664.294 C 1406.484 668.788 1401.548 671.149 1397.055 669.563 C 1392.561 667.977 1390.199 663.041 1391.785 658.548 Z " fill="rgb(108,165,26)"/><path d=" M 1384.865 669.507 C 1386.451 665.014 1391.387 662.652 1395.881 664.238 C 1400.374 665.824 1402.736 670.76 1401.15 675.254 C 1399.564 679.747 1394.628 682.109 1390.134 680.523 C 1385.641 678.937 1383.279 674.001 1384.865 669.507 Z " fill="rgb(108,165,26)"/><path d=" M 1401.468 657.054 C 1403.054 652.56 1407.99 650.2 1412.484 651.786 C 1416.978 653.372 1419.339 658.308 1417.753 662.801 C 1416.167 667.295 1411.231 669.655 1406.738 668.069 C 1402.244 666.483 1399.882 661.547 1401.468 657.054 Z " fill="rgb(76,136,0)"/><path d=" M 1389.87 663.975 C 1391.456 659.482 1396.392 657.12 1400.886 658.706 C 1405.38 660.292 1407.74 665.228 1406.154 669.722 C 1404.568 674.215 1399.632 676.577 1395.138 674.991 C 1390.644 673.405 1388.284 668.469 1389.87 663.975 Z " fill="rgb(76,136,0)"/><path d=" M 1391.467 676.747 C 1393.053 672.254 1397.989 669.892 1402.482 671.478 C 1406.976 673.064 1409.338 678 1407.752 682.494 C 1406.166 686.987 1401.23 689.349 1396.735 687.763 C 1392.241 686.177 1389.881 681.241 1391.467 676.747 Z " fill="rgb(76,136,0)"/><path d=" M 1398.013 666.849 C 1399.599 662.355 1404.535 659.993 1409.028 661.579 C 1413.522 663.165 1415.882 668.102 1414.296 672.596 C 1412.71 677.09 1407.774 679.45 1403.281 677.864 C 1398.787 676.278 1396.427 671.342 1398.013 666.849 Z " fill="rgb(76,136,0)"/><path d=" M 1412.774 661.043 C 1414.36 656.55 1419.295 654.188 1423.789 655.774 C 1428.283 657.36 1430.643 662.296 1429.057 666.79 C 1427.471 671.285 1422.535 673.645 1418.041 672.059 C 1413.548 670.473 1411.188 665.537 1412.774 661.043 Z " fill="rgb(76,136,0)"/><path d=" M 1409.317 670.838 C 1410.902 666.345 1415.838 663.983 1420.332 665.569 C 1424.826 667.155 1427.187 672.091 1425.601 676.584 C 1424.016 681.078 1419.078 683.44 1414.584 681.854 C 1410.091 680.268 1407.731 675.332 1409.317 670.838 Z " fill="rgb(76,136,0)"/><path d=" M 1422.544 669.402 C 1424.13 664.908 1429.068 662.548 1433.561 664.134 C 1438.055 665.72 1440.415 670.656 1438.829 675.149 C 1437.243 679.643 1432.307 682.005 1427.814 680.419 C 1423.32 678.833 1420.958 673.895 1422.544 669.402 Z " fill="rgb(76,136,0)"/><path d=" M 1423.29 678.822 C 1424.876 674.329 1429.812 671.967 1434.305 673.553 C 1438.801 675.139 1441.161 680.075 1439.575 684.568 C 1437.989 689.062 1433.053 691.424 1428.559 689.838 C 1424.065 688.252 1421.704 683.316 1423.29 678.822 Z " fill="rgb(76,136,0)"/><path d=" M 1420.417 686.963 C 1422.003 682.469 1426.938 680.109 1431.432 681.695 C 1435.926 683.281 1438.287 688.217 1436.702 692.711 C 1435.116 697.205 1430.18 699.566 1425.686 697.98 C 1421.192 696.394 1418.831 691.457 1420.417 686.963 Z " fill="rgb(76,136,0)"/><path d=" M 1432.39 678.981 C 1433.976 674.487 1438.912 672.127 1443.406 673.713 C 1447.9 675.299 1450.261 680.235 1448.675 684.728 C 1447.089 689.222 1442.153 691.582 1437.66 689.996 C 1433.166 688.41 1430.804 683.474 1432.39 678.981 Z " fill="rgb(76,136,0)"/><path d=" M 1430.1 685.471 C 1431.686 680.977 1436.622 678.617 1441.115 680.203 C 1445.609 681.789 1447.971 686.725 1446.385 691.219 C 1444.799 695.712 1439.863 698.072 1435.369 696.486 C 1430.875 694.901 1428.514 689.965 1430.1 685.471 Z " fill="rgb(76,136,0)"/><path d=" M 1437.497 678.925 C 1439.083 674.431 1444.019 672.071 1448.512 673.657 C 1453.006 675.243 1455.368 680.179 1453.782 684.673 C 1452.196 689.166 1447.26 691.526 1442.766 689.94 C 1438.272 688.355 1435.911 683.419 1437.497 678.925 Z " fill="rgb(76,136,0)"/><path d=" M 1433.006 670.042 C 1434.592 665.548 1439.528 663.188 1444.022 664.774 C 1448.515 666.36 1450.877 671.295 1449.291 675.789 C 1447.705 680.283 1442.769 682.645 1438.275 681.059 C 1433.782 679.473 1431.42 674.537 1433.006 670.042 Z " fill="rgb(76,136,0)"/><path d=" M 1403.281 677.864 C 1405.616 671.247 1412.884 667.77 1419.501 670.106 C 1426.119 672.441 1429.594 679.71 1427.26 686.326 C 1424.924 692.943 1417.657 696.42 1411.038 694.084 C 1404.421 691.75 1400.946 684.481 1403.281 677.864 Z " fill="rgb(76,136,0)"/></g></g><g><path d=" M 1292.059 267.025 L 1308.658 267.025 C 1305.08 303.253 1305.096 334.761 1308.658 361.503 L 1292.059 361.503 C 1294.071 337.193 1294.086 305.714 1292.059 267.025 Z " fill="rgb(108,59,25)"/><path d=" M 1300.359 267.025 L 1308.658 267.025 C 1306.33 306.879 1306.345 338.387 1308.658 361.503 L 1300.359 361.503 L 1300.359 267.025 L 1300.359 267.025 Z " fill="rgb(145,81,38)"/><ellipse vector-effect="non-scaling-stroke" cx="1300.3589249102163" cy="246.23109664732937" rx="35.46110240186272" ry="54.32339091349188" fill="rgb(67,137,4)"/><ellipse vector-effect="non-scaling-stroke" cx="1300.358924910217" cy="235.50208620916155" rx="35.46110240186272" ry="43.5943804753247" fill="rgb(91,155,0)"/><ellipse vector-effect="non-scaling-stroke" cx="1300.3589249102165" cy="219.06940119058308" rx="25.6449270777116" ry="27.161695456745946" fill="rgb(135,175,26)"/><path d=" M 1363.495 220.26 L 1389.63 220.26 C 1383.997 277.3 1384.02 326.908 1389.63 369.013 L 1363.495 369.013 C 1366.664 330.738 1366.686 281.177 1363.495 220.26 Z " fill="rgb(108,59,25)"/><path d=" M 1376.563 220.26 L 1389.63 220.26 C 1385.965 283.01 1385.988 332.618 1389.63 369.013 L 1376.563 369.013 L 1376.563 220.26 L 1376.563 220.26 Z " fill="rgb(145,81,38)"/><ellipse vector-effect="non-scaling-stroke" cx="1376.562570497198" cy="187.52199304910113" rx="55.83237399442214" ry="85.53044526805104" fill="rgb(67,137,4)"/><ellipse vector-effect="non-scaling-stroke" cx="1376.5625704971976" cy="170.62950852943368" rx="55.83237399442214" ry="68.6379607483835" fill="rgb(91,155,0)"/><ellipse vector-effect="non-scaling-stroke" cx="1376.562570497198" cy="144.75677041507615" rx="40.377119228737456" ry="42.76522263402569" fill="rgb(135,175,26)"/></g><g><g><path d=" M 630.837 1004.511 L 596.415 983.963 C 581.116 974.831 566.441 971.19 563.666 975.839 L 563.666 975.839 C 560.892 980.486 571.06 991.676 586.361 1000.808 L 592.563 1004.511 L 630.837 1004.511 L 630.837 1004.511 L 630.837 1004.511 Z " fill="rgb(107,165,19)"/><path d=" M 637.241 1004.511 L 623.593 972.389 C 617.081 957.06 607.749 946.331 602.766 948.448 L 602.766 948.448 C 597.784 950.565 599.026 964.73 605.538 980.059 L 615.926 1004.511 L 637.241 1004.511 L 637.241 1004.511 L 637.241 1004.511 Z " fill="rgb(107,165,19)"/><path d=" M 645.044 1004.511 L 645.443 970.757 C 645.641 954.1 641.407 940.527 635.994 940.462 L 635.994 940.462 C 630.582 940.399 626.026 953.868 625.828 970.524 L 625.425 1004.511 L 645.044 1004.511 L 645.044 1004.511 L 645.044 1004.511 Z " fill="rgb(107,165,19)"/><path d=" M 652.486 1004.511 L 666.28 986.78 C 676.507 973.634 681.342 960.262 677.07 956.939 L 677.07 956.939 C 672.797 953.615 661.025 961.589 650.797 974.736 L 627.633 1004.511 L 652.486 1004.511 L 652.486 1004.511 L 652.486 1004.511 Z " fill="rgb(107,165,19)"/><path d=" M 683.489 1004.511 C 697.153 997.411 706.139 988.747 704.069 984.286 L 704.069 984.286 C 701.79 979.374 686.975 981.405 671.006 988.816 L 637.185 1004.511 L 683.489 1004.511 L 683.489 1004.511 L 683.489 1004.511 Z " fill="rgb(107,165,19)"/><path d=" M 603.794 964.122 C 602.164 959.663 602.51 955.431 604.567 954.678 C 606.623 953.927 609.617 956.937 611.248 961.398 C 612.878 965.857 612.533 970.09 610.476 970.841 C 608.419 971.593 605.425 968.582 603.794 964.122 Z " fill="rgb(125,189,29)"/></g><g><path d=" M 648.52 1004.511 L 622.377 988.905 C 610.756 981.968 599.611 979.204 597.505 982.733 L 597.505 982.733 C 595.397 986.264 603.121 994.761 614.74 1001.698 L 619.451 1004.511 L 648.52 1004.511 L 648.52 1004.511 L 648.52 1004.511 Z " fill="rgb(78,134,1)"/><path d=" M 653.384 1004.511 L 643.02 980.115 C 638.074 968.472 630.984 960.323 627.201 961.931 L 627.201 961.931 C 623.417 963.539 624.36 974.297 629.306 985.94 L 637.195 1004.511 L 653.384 1004.511 L 653.384 1004.511 L 653.384 1004.511 Z " fill="rgb(78,134,1)"/><path d=" M 659.311 1004.511 L 659.614 978.875 C 659.764 966.225 656.548 955.916 652.438 955.866 L 652.438 955.866 C 648.326 955.818 644.867 966.049 644.716 978.698 L 644.411 1004.511 L 659.311 1004.511 L 659.311 1004.511 L 659.311 1004.511 Z " fill="rgb(78,134,1)"/><path d=" M 664.964 1004.511 L 675.439 991.045 C 683.207 981.06 686.879 970.904 683.634 968.38 L 683.634 968.38 C 680.39 965.855 671.448 971.911 663.68 981.896 L 646.086 1004.511 L 664.964 1004.511 L 664.964 1004.511 L 664.964 1004.511 Z " fill="rgb(78,134,1)"/><path d=" M 688.51 1004.511 C 698.887 999.119 705.712 992.539 704.14 989.15 L 704.14 989.15 C 702.409 985.421 691.157 986.962 679.029 992.59 L 653.342 1004.511 L 688.51 1004.511 L 688.51 1004.511 L 688.51 1004.511 Z " fill="rgb(78,134,1)"/><path d=" M 627.982 973.836 C 626.743 970.449 627.007 967.235 628.569 966.663 C 630.13 966.092 632.404 968.378 633.643 971.766 C 634.881 975.154 634.618 978.368 633.056 978.938 C 631.494 979.51 629.22 977.223 627.982 973.836 Z " fill="rgb(78,134,1)"/></g></g><g><rect x="1343.068" y="984.894" width="11.157" height="19.617" transform="matrix(1,0,0,1,0,0)" fill="rgb(145,81,38)"/><rect x="1343.068" y="984.894" width="5.579" height="19.617" transform="matrix(1,0,0,1,0,0)" fill="rgb(108,59,25)"/><path d=" M 1316.999 974.179 L 1328.483 953.91 L 1345.172 924.449 C 1346.814 921.55 1349.518 921.529 1351.208 924.399 L 1368.376 953.584 L 1380.189 973.663 C 1384.834 981.559 1381.169 988.031 1372.008 988.105 L 1348.712 988.295 L 1325.415 988.486 C 1316.255 988.561 1312.483 982.151 1316.999 974.179 Z " fill="rgb(93,153,0)"/><path d=" M 1348.148 988.3 L 1325.415 988.486 C 1316.255 988.561 1312.483 982.151 1316.999 974.179 L 1328.483 953.909 L 1344.428 925.762 C 1346.48 922.139 1348.148 922.578 1348.148 926.743 L 1348.148 988.3 L 1348.148 988.3 L 1348.148 988.3 Z " fill="rgb(81,133,0)"/><circle vector-effect="non-scaling-stroke" cx="1323.9551595124358" cy="978.8589261764743" r="4.526949242791034" fill="rgb(98,153,10)"/><circle vector-effect="non-scaling-stroke" cx="1327.0916781712351" cy="978.8589261764743" r="4.526949242791034" fill="rgb(81,133,0)"/></g><g><g><rect x="1687.911" y="987.539" width="11.157" height="19.617" transform="matrix(1,0,0,1,0,0)" fill="rgb(145,81,38)"/><rect x="1687.911" y="987.539" width="5.579" height="19.617" transform="matrix(1,0,0,1,0,0)" fill="rgb(108,59,25)"/><path d=" M 1661.842 976.824 L 1673.325 956.555 L 1690.015 927.094 C 1691.657 924.195 1694.361 924.174 1696.051 927.044 L 1713.218 956.23 L 1725.032 976.308 C 1729.677 984.205 1726.012 990.677 1716.851 990.751 L 1693.555 990.941 L 1670.258 991.131 C 1661.098 991.206 1657.326 984.796 1661.842 976.824 Z " fill="rgb(93,153,0)"/><path d=" M 1692.991 990.945 L 1670.258 991.131 C 1661.098 991.206 1657.326 984.796 1661.842 976.824 L 1673.325 956.554 L 1689.271 928.407 C 1691.323 924.784 1692.991 925.223 1692.991 929.388 L 1692.991 990.945 L 1692.991 990.945 L 1692.991 990.945 Z " fill="rgb(81,133,0)"/><circle vector-effect="non-scaling-stroke" cx="1668.7981011985714" cy="981.5041650338953" r="4.526949242791034" fill="rgb(98,153,10)"/><circle vector-effect="non-scaling-stroke" cx="1671.9346198573712" cy="981.5041650338953" r="4.526949242791034" fill="rgb(81,133,0)"/></g><g><rect x="1710.187" y="997.348" width="5.579" height="9.808" transform="matrix(1,0,0,1,0,0)" fill="rgb(145,81,38)"/><rect x="1710.187" y="997.348" width="2.789" height="9.808" transform="matrix(1,0,0,1,0,0)" fill="rgb(108,59,25)"/><path d=" M 1697.152 991.99 L 1702.894 981.856 L 1711.238 967.125 C 1712.059 965.676 1713.411 965.665 1714.256 967.1 L 1722.84 981.693 L 1728.747 991.732 C 1731.069 995.68 1729.237 998.916 1724.656 998.953 L 1713.008 999.049 L 1701.36 999.144 C 1696.78 999.181 1694.894 995.976 1697.152 991.99 Z " fill="rgb(93,153,0)"/><path d=" M 1712.726 999.051 L 1701.36 999.144 C 1696.78 999.181 1694.894 995.976 1697.152 991.99 L 1702.894 981.855 L 1710.866 967.782 C 1711.893 965.97 1712.726 966.19 1712.726 968.272 L 1712.726 999.051 L 1712.726 999.051 L 1712.726 999.051 Z " fill="rgb(81,133,0)"/><circle vector-effect="non-scaling-stroke" cx="1700.6300399970391" cy="994.3302090026241" r="2.263474621395517" fill="rgb(98,153,10)"/><circle vector-effect="non-scaling-stroke" cx="1702.198299326439" cy="994.3302090026241" r="2.263474621395517" fill="rgb(81,133,0)"/></g><g><rect x="1676.63" y="1004.284" width="5.579" height="9.808" transform="matrix(1,0,0,1,0,0)" fill="rgb(145,81,38)"/><rect x="1676.63" y="1004.284" width="2.789" height="9.808" transform="matrix(1,0,0,1,0,0)" fill="rgb(108,59,25)"/><path d=" M 1663.596 998.926 L 1669.338 988.792 L 1677.682 974.061 C 1678.503 972.612 1679.855 972.601 1680.7 974.036 L 1689.284 988.629 L 1695.191 998.668 C 1697.513 1002.617 1695.681 1005.853 1691.1 1005.89 L 1679.452 1005.985 L 1667.804 1006.08 C 1663.224 1006.117 1661.338 1002.912 1663.596 998.926 Z " fill="rgb(93,153,0)"/><path d=" M 1679.17 1005.987 L 1667.804 1006.08 C 1663.224 1006.117 1661.338 1002.912 1663.596 998.926 L 1669.338 988.791 L 1677.31 974.718 C 1678.336 972.906 1679.17 973.126 1679.17 975.208 L 1679.17 1005.987 L 1679.17 1005.987 L 1679.17 1005.987 Z " fill="rgb(81,133,0)"/><circle vector-effect="non-scaling-stroke" cx="1667.073842172489" cy="1001.2663375551165" r="2.263474621395517" fill="rgb(98,153,10)"/><circle vector-effect="non-scaling-stroke" cx="1668.642101501888" cy="1001.2663375551165" r="2.263474621395517" fill="rgb(81,133,0)"/></g></g><g><circle vector-effect="non-scaling-stroke" cx="1617.7899621425288" cy="196.29202430617326" r="24.716194577315946" fill="rgb(94,153,1)"/><ellipse vector-effect="non-scaling-stroke" cx="1639.017897378039" cy="218.69186048627486" rx="29.846645251002656" ry="29.44144911086667" fill="rgb(94,153,1)"/><ellipse vector-effect="non-scaling-stroke" cx="1663.4275501939364" cy="228.96216522151144" rx="28.88713071639495" ry="28.64697020894215" fill="rgb(94,153,1)"/><circle vector-effect="non-scaling-stroke" cx="1740.3839558627187" cy="236.30045528919948" r="30.095533790061154" fill="rgb(94,153,1)"/><ellipse vector-effect="non-scaling-stroke" cx="1770.7515983045373" cy="221.0082188834889" rx="29.659433492779044" ry="29.44144911086667" fill="rgb(94,153,1)"/><ellipse vector-effect="non-scaling-stroke" cx="1791.2696270174515" cy="200.31519501256943" rx="29.659433492779044" ry="29.44144911086667" fill="rgb(94,153,1)"/><path d=" M 1763.745 198.674 C 1760.917 184.574 1772.701 170.304 1790.04 166.827 C 1807.38 163.351 1823.754 171.976 1826.581 186.076 C 1829.408 200.174 1817.626 214.445 1800.285 217.922 C 1782.945 221.398 1766.571 212.774 1763.745 198.674 Z " fill="rgb(81,134,27)"/><path d=" M 1599.237 170.628 L 1620.506 149.957 C 1652.4 211.579 1683.45 243.526 1713.583 245.725 L 1692.314 266.396 L 1599.237 170.628 L 1599.237 170.628 Z " fill="rgb(108,59,25)"/><path d=" M 1683.973 183.557 L 1735.877 183.557 C 1731.327 246.435 1731.352 311.365 1735.877 378.272 L 1683.973 378.272 C 1688.504 315.476 1688.528 250.596 1683.973 183.557 Z " fill="rgb(145,81,38)"/><path d=" M 1683.973 183.557 L 1709.926 183.557 L 1709.926 378.272 L 1683.973 378.272 C 1688.916 314.652 1688.94 249.772 1683.973 183.557 Z " fill="rgb(108,59,25)"/><path d=" M 1786.591 167.17 L 1805.646 189.898 L 1729.343 253.869 L 1710.288 231.14 C 1736.5 229.53 1761.96 208.232 1786.591 167.17 Z " fill="rgb(145,81,38)"/><circle vector-effect="non-scaling-stroke" cx="1601.5722918178067" cy="167.53121076999676" r="19.31030446907539" fill="rgb(81,134,27)"/><ellipse vector-effect="non-scaling-stroke" cx="1626.2884863951224" cy="181.14133176212732" rx="19.31030446907539" ry="21.964487316469246" fill="rgb(81,134,27)"/><circle vector-effect="non-scaling-stroke" cx="1645.5987908641978" cy="182.38760994533735" r="24.71619457731549" fill="rgb(81,134,27)"/><circle vector-effect="non-scaling-stroke" cx="1670.3149854415126" cy="188.8664418067464" r="19.31030446907539" fill="rgb(81,134,27)"/><circle vector-effect="non-scaling-stroke" cx="1783.3002381342144" cy="164.24777164288312" r="19.31030446907539" fill="rgb(81,134,27)"/><circle vector-effect="non-scaling-stroke" cx="1677.6385063161893" cy="196.29202430617227" r="19.31030446907539" fill="rgb(81,134,27)"/><circle vector-effect="non-scaling-stroke" cx="1805.1501190671086" cy="170.0707872338131" r="21.849880932891438" fill="rgb(81,134,27)"/><ellipse vector-effect="non-scaling-stroke" cx="1779.035894073766" cy="189.38109170288712" rx="23.574648529526712" ry="21.849880932891182" fill="rgb(81,134,27)"/><circle vector-effect="non-scaling-stroke" cx="1794.0818544823892" cy="138.3611108989479" r="19.31030446907539" fill="rgb(81,134,27)"/><circle vector-effect="non-scaling-stroke" cx="1770.4794896527794" cy="148.2209063009211" r="19.31030446907539" fill="rgb(81,134,27)"/><circle vector-effect="non-scaling-stroke" cx="1765.0735995445382" cy="125.62716270473291" r="19.31030446907539" fill="rgb(81,134,27)"/><circle vector-effect="non-scaling-stroke" cx="1751.169185183705" cy="106.29141278633276" r="19.31030446907539" fill="rgb(81,134,27)"/><circle vector-effect="non-scaling-stroke" cx="1774.7715500133143" cy="119.05080642987207" r="19.31030446907539" fill="rgb(81,134,27)"/><circle vector-effect="non-scaling-stroke" cx="1639.0178973780398" cy="155.00298522028194" r="19.31030446907539" fill="rgb(81,134,27)"/><circle vector-effect="non-scaling-stroke" cx="1637.1002666116042" cy="128.91060183184655" r="19.31030446907539" fill="rgb(94,153,1)"/><circle vector-effect="non-scaling-stroke" cx="1637.1002666116042" cy="128.91060183184655" r="19.31030446907539" fill="rgb(81,134,27)"/><circle vector-effect="non-scaling-stroke" cx="1614.0551116305478" cy="144.9120217244825" r="19.31030446907539" fill="rgb(81,134,27)"/><circle vector-effect="non-scaling-stroke" cx="1654.6793782872828" cy="148.220906300921" r="19.31030446907539" fill="rgb(81,134,27)"/><circle vector-effect="non-scaling-stroke" cx="1654.6793782872828" cy="116.09072971897751" r="19.31030446907539" fill="rgb(81,134,27)"/><circle vector-effect="non-scaling-stroke" cx="1703.6044921944344" cy="137.91640133192064" r="58.00570133023757" fill="rgb(81,134,27)"/><circle vector-effect="non-scaling-stroke" cx="1709.9248129383564" cy="176.1048190472084" r="31.16735187340032" fill="rgb(81,134,27)"/><circle vector-effect="non-scaling-stroke" cx="1739.3121377793777" cy="179.38825817432067" r="31.16735187340032" fill="rgb(81,134,27)"/><circle vector-effect="non-scaling-stroke" cx="1649.091586967189" cy="135.8636853808304" r="19.772955661852848" fill="rgb(94,155,33)"/><circle vector-effect="non-scaling-stroke" cx="1658.9845054031023" cy="139.4038887838057" r="19.772955661852848" fill="rgb(81,134,27)"/></g><g><path d=" M 1705.079 471.589 L 1705.079 471.589 C 1703.823 473.81 1703.891 475.614 1705.228 475.614 L 1705.228 475.614 L 1707.65 475.614 L 1707.65 475.614 L 1747.925 553.842 C 1765.716 588.396 1780.158 641.306 1780.158 671.919 L 1780.158 671.919 C 1780.158 717.401 1744.999 754.327 1701.691 754.327 L 1701.691 754.327 C 1658.383 754.327 1623.224 717.401 1623.224 671.919 L 1623.224 671.919 C 1623.224 641.306 1638.747 588.98 1657.867 555.143 L 1705.079 471.589 L 1705.079 471.589 L 1705.079 471.589 L 1705.079 471.589 Z " fill="rgb(96,152,1)"/><path d=" M 1702.805 754.308 C 1702.436 754.324 1702.064 754.327 1701.691 754.327 L 1701.691 754.327 C 1658.383 754.327 1623.224 717.401 1623.224 671.919 L 1623.224 671.919 C 1623.224 641.306 1638.747 588.98 1657.867 555.143 L 1702.805 475.614 L 1702.805 754.308 L 1702.805 754.308 L 1702.805 754.308 Z " fill="rgb(80,132,4)"/><path d=" M 1705.079 471.589 L 1723.269 439.398 L 1705.079 471.589 L 1705.079 471.589 L 1705.079 471.589 L 1705.079 471.589 Z " fill="rgb(235,235,235)"/><path d=" M 1703.105 622.015 C 1717.366 614.432 1731.922 603.971 1737.766 598.674 C 1742.704 594.2 1747.366 591.475 1748.171 592.59 L 1748.171 592.59 C 1748.975 593.707 1745.228 597.757 1739.806 601.632 C 1733.697 605.997 1719.182 616.5 1706.022 626.059 L 1703.105 622.015 L 1703.105 622.015 Z " fill="rgb(121,51,25)"/><path d=" M 1705.079 664.233 C 1719.34 656.651 1733.896 646.189 1739.74 640.892 C 1744.677 636.42 1749.34 633.693 1750.144 634.81 L 1750.144 634.81 C 1750.949 635.925 1747.202 639.977 1741.78 643.85 C 1735.67 648.216 1721.155 658.718 1707.996 668.278 L 1705.079 664.233 L 1705.079 664.233 Z " fill="rgb(121,51,25)"/><path d=" M 1705.079 701.698 C 1719.34 694.114 1733.896 683.653 1739.74 678.358 C 1744.677 673.883 1749.34 671.157 1750.144 672.273 L 1750.144 672.273 C 1750.949 673.388 1747.202 677.44 1741.78 681.314 C 1735.67 685.679 1721.155 696.182 1707.996 705.743 L 1705.079 701.698 L 1705.079 701.698 Z " fill="rgb(121,51,25)"/><path d=" M 1701.691 622.015 C 1687.43 614.432 1672.874 603.971 1667.03 598.674 C 1662.092 594.2 1657.43 591.475 1656.625 592.59 L 1656.625 592.59 C 1655.821 593.707 1659.568 597.757 1664.99 601.632 C 1671.099 605.997 1685.614 616.5 1698.774 626.059 L 1701.691 622.015 L 1701.691 622.015 Z " fill="rgb(121,51,25)"/><path d=" M 1701.691 664.233 C 1687.43 656.651 1672.874 646.189 1667.03 640.892 C 1662.092 636.42 1657.43 633.693 1656.625 634.81 L 1656.625 634.81 C 1655.821 635.925 1659.568 639.977 1664.99 643.85 C 1671.099 648.216 1685.614 658.718 1698.774 668.278 L 1701.691 664.233 L 1701.691 664.233 Z " fill="rgb(121,51,25)"/><path d=" M 1701.691 710.994 C 1687.43 703.411 1672.874 692.949 1667.03 687.653 C 1662.092 683.18 1657.43 680.453 1656.625 681.57 L 1656.625 681.57 C 1655.821 682.685 1659.568 686.737 1664.99 690.61 C 1671.099 694.976 1685.614 705.478 1698.774 715.038 L 1701.691 710.994 L 1701.691 710.994 Z " fill="rgb(121,51,25)"/><path d=" M 1702.805 550.056 L 1702.805 550.056 C 1707.123 550.056 1710.35 557.263 1710.006 566.14 C 1706.734 650.616 1706.754 743.186 1710.629 827.709 L 1694.982 827.709 C 1699.173 743.17 1699.192 650.639 1695.655 566.137 C 1695.284 557.262 1698.487 550.056 1702.805 550.056 Z " fill="rgb(121,51,25)"/><path d=" M 1702.805 550.056 L 1702.805 550.056 C 1707.123 550.056 1710.375 557.265 1710.061 566.142 C 1707.137 649.187 1707.157 741.759 1710.629 827.709 L 1702.805 827.709 L 1702.805 550.056 L 1702.805 550.056 Z " fill="rgb(145,84,38)"/></g><g><circle vector-effect="non-scaling-stroke" cx="1090.1246228718298" cy="175.84304602066953" r="18.955633923627374" fill="rgb(78,134,1)"/><circle vector-effect="non-scaling-stroke" cx="1109.0802567954581" cy="221.23917360891102" r="36.308939354326185" fill="rgb(94,153,0)"/><circle vector-effect="non-scaling-stroke" cx="1038.252372543217" cy="132.40250024562977" r="36.30893935432613" fill="rgb(94,153,0)"/><circle vector-effect="non-scaling-stroke" cx="886.9968859924018" cy="188.83751806466142" r="36.30893935432607" fill="rgb(90,154,3)"/><circle vector-effect="non-scaling-stroke" cx="876.9683094033327" cy="173.03647126628985" r="11.893762988294952" fill="rgb(112,181,17)"/><circle vector-effect="non-scaling-stroke" cx="959.6147647010538" cy="116.21963935600931" r="36.30893935432607" fill="rgb(94,153,0)"/><circle vector-effect="non-scaling-stroke" cx="1084.1820359601077" cy="202.28353968528327" r="18.955633923627374" fill="rgb(108,166,31)"/><circle vector-effect="non-scaling-stroke" cx="1063.4634338293438" cy="240.19480753253788" r="18.955633923627374" fill="rgb(78,134,1)"/><circle vector-effect="non-scaling-stroke" cx="1013.4465219367075" cy="203.8858681782124" r="18.955633923627317" fill="rgb(90,154,3)"/><circle vector-effect="non-scaling-stroke" cx="928.9434694482794" cy="216.75132967635724" r="18.95563392362726" fill="rgb(90,154,3)"/><ellipse vector-effect="non-scaling-stroke" cx="931.7181462609759" cy="176.58015028598027" rx="12.644741816807255" ry="12.257367778681413" fill="rgb(78,134,1)"/><ellipse vector-effect="non-scaling-stroke" cx="988.6480947817582" cy="163.76247093666254" rx="16.791952938962027" ry="16.277528309956352" fill="rgb(90,154,3)"/><ellipse vector-effect="non-scaling-stroke" cx="1014.145751649995" cy="161.91568243014459" rx="15.127914350453636" ry="14.664467855835142" fill="rgb(78,134,1)"/><circle vector-effect="non-scaling-stroke" cx="935.277319158267" cy="149.57268147608735" r="18.95563392362726" fill="rgb(78,134,1)"/><path d=" M 974.874 211.193 L 1015.617 211.193 C 993.729 279.739 993.759 339.736 1015.617 391.094 L 974.874 391.094 C 989.302 316.306 989.332 256.369 974.874 211.193 Z " fill="rgb(119,66,34)"/><path d=" M 1008.072 215.72 C 1037.749 203.648 1069.453 203.663 1086.089 209.618 C 1095.498 212.986 1103.138 221.128 1103.138 227.792 L 1103.138 227.792 C 1070.435 207.663 1038.777 207.694 1008.072 227.792 L 1008.072 215.72 L 1008.072 215.72 Z " fill="rgb(119,66,34)"/><path d=" M 985.965 209.77 C 961.538 189.04 931.414 179.16 912.241 179.664 C 903.083 179.906 893.96 185.24 891.88 191.57 L 891.88 191.57 C 929.231 182.654 959.299 192.563 982.197 221.24 L 985.965 209.77 L 985.965 209.77 Z " fill="rgb(119,66,34)"/><path d=" M 983.489 216.752 C 964.992 190.592 957.805 159.714 959.996 140.662 C 961.043 131.559 967.16 122.942 973.649 121.428 L 973.649 121.428 C 961.477 157.847 968.698 188.671 995.246 214.009 L 983.489 216.752 L 983.489 216.752 Z " fill="rgb(119,66,34)"/><path d=" M 1001.944 217.698 C 1020.132 191.324 1046.648 173.942 1065.289 169.439 C 1074.196 167.289 1084.393 170.064 1088.048 175.635 L 1088.048 175.635 C 1049.664 176.749 1023.211 194.143 1008.567 227.792 L 1001.944 217.698 L 1001.944 217.698 Z " fill="rgb(119,66,34)"/><path d=" M 1048.559 178.323 C 1052.854 162.96 1047.818 148.246 1033.411 134.129 L 1033.411 134.129 C 1040.073 134.101 1048.019 141.071 1051.143 149.682 C 1053.986 157.521 1055.62 167.944 1055.605 179.646 L 1048.559 178.323 L 1048.559 178.323 L 1048.559 178.323 Z " fill="rgb(119,66,34)"/><path d=" M 1038.851 186.509 C 1035.291 176.465 1026.483 169.411 1012.383 165.323 L 1012.383 165.323 C 1016.303 163.44 1023.756 165.225 1029.015 169.305 C 1033.802 173.019 1038.9 178.56 1043.533 185.297 L 1038.851 186.509 L 1038.851 186.509 L 1038.851 186.509 Z " fill="rgb(119,66,34)"/><path d=" M 954.989 160.574 L 954.989 160.574 C 963.429 163.562 969.941 166.945 969.525 168.122 L 969.525 168.122 C 969.107 169.299 961.917 167.829 953.477 164.842 L 953.477 164.842 C 945.039 161.854 938.524 158.471 938.942 157.294 L 938.942 157.294 C 939.359 156.117 946.549 157.586 954.989 160.574 Z " fill="rgb(125,64,23)"/><path d=" M 937.082 200.18 C 937.082 200.18 946.422 194.721 946.422 194.721 C 952.375 193.286 957.72 192.995 958.352 194.072 L 958.352 194.072 C 958.985 195.149 954.939 196.625 949.323 197.366 C 949.323 197.366 940.011 202.856 940.011 202.856 C 935.324 208.149 931.005 211.572 930.373 210.494 L 930.373 210.494 C 929.741 209.418 932.746 204.796 937.082 200.18 Z " fill="rgb(125,64,23)"/><path d=" M 974.832 181.366 C 974.832 181.366 977.598 170.906 977.598 170.906 C 980.802 165.69 984.384 161.71 985.593 162.027 L 985.593 162.027 C 986.801 162.344 984.975 166.246 981.518 170.734 C 981.518 170.734 978.795 181.194 978.795 181.194 C 979.21 188.252 978.567 193.725 977.358 193.408 L 977.358 193.408 C 976.149 193.091 975.018 187.695 974.832 181.366 Z " fill="rgb(125,64,23)"/><path d=" M 1046.7 231.415 C 1046.7 231.415 1040.421 222.604 1040.421 222.604 C 1038.455 216.805 1037.684 211.507 1038.7 210.781 L 1038.7 210.781 C 1039.717 210.054 1041.55 213.95 1042.794 219.477 C 1042.794 219.477 1049.1 228.257 1049.1 228.257 C 1054.795 232.447 1058.593 236.44 1057.577 237.167 L 1057.577 237.167 C 1056.562 237.893 1051.688 235.316 1046.7 231.415 Z " fill="rgb(125,64,23)"/><path d=" M 935.642 174.372 C 935.642 174.372 938.186 179.495 938.186 179.495 C 937.987 183.058 936.919 186.406 935.802 186.966 L 935.802 186.966 C 934.685 187.526 934.375 185.177 935.11 181.723 C 935.11 181.723 932.532 176.625 932.532 176.625 C 928.98 174.431 927.003 172.196 928.12 171.636 L 928.12 171.636 C 929.237 171.077 932.608 172.303 935.642 174.372 Z " fill="rgb(125,64,23)"/><path d=" M 1077.105 200.668 C 1077.105 200.668 1074.561 205.789 1074.561 205.789 C 1074.76 209.354 1075.828 212.702 1076.946 213.262 L 1076.946 213.262 C 1078.063 213.82 1078.372 211.471 1077.637 208.018 C 1077.637 208.018 1080.215 202.919 1080.215 202.919 C 1083.767 200.727 1085.744 198.49 1084.627 197.931 L 1084.627 197.931 C 1083.51 197.372 1080.139 198.597 1077.105 200.668 Z " fill="rgb(125,64,23)"/></g><g><circle vector-effect="non-scaling-stroke" cx="398.5384615384609" cy="932.6876453556737" r="11.538461538461434" fill="rgb(255,255,255)"/></g><g><g><rect x="410.214" y="942.734" width="3.571" height="64.286" transform="matrix(1,0,0,1,0,0)" fill="rgb(107,165,19)"/><circle vector-effect="non-scaling-stroke" cx="408.1538461538456" cy="916.4460800146159" r="11.538461538461434" fill="rgb(255,255,255)"/><circle vector-effect="non-scaling-stroke" cx="410.0769230769224" cy="944.2261068941359" r="11.538461538461434" fill="rgb(255,255,255)"/><circle vector-effect="non-scaling-stroke" cx="425.461538461538" cy="942.3030299710588" r="11.538461538461434" fill="rgb(255,255,255)"/><circle vector-effect="non-scaling-stroke" cx="425.461538461538" cy="924.995337663367" r="11.538461538461434" fill="rgb(255,255,255)"/><circle vector-effect="non-scaling-stroke" cx="411.9999999999997" cy="932.6876453556737" r="11.538461538461434" fill="rgb(227,255,13)"/><rect x="423.181" y="974.5" width="1.686" height="30.354" transform="matrix(0.962,0.272,-0.272,0.962,285.382,-78.047)" fill="rgb(107,165,19)"/><path d=" M 424.543 961.152 C 425.362 958.258 428.375 956.574 431.269 957.392 C 434.162 958.211 435.847 961.224 435.028 964.118 C 434.21 967.011 431.196 968.696 428.303 967.877 C 425.409 967.059 423.725 964.045 424.543 961.152 Z " fill="rgb(255,255,255)"/><path d=" M 418.087 967.295 C 418.906 964.402 421.919 962.717 424.812 963.536 C 427.706 964.354 429.391 967.368 428.572 970.261 C 427.754 973.155 424.74 974.839 421.847 974.021 C 418.953 973.202 417.269 970.189 418.087 967.295 Z " fill="rgb(255,255,255)"/><path d=" M 421.847 974.021 C 422.665 971.127 425.679 969.443 428.572 970.261 C 431.466 971.08 433.15 974.093 432.332 976.987 C 431.513 979.88 428.5 981.565 425.606 980.746 C 422.713 979.928 421.028 976.914 421.847 974.021 Z " fill="rgb(255,255,255)"/><path d=" M 429.084 975.124 C 429.902 972.231 432.916 970.546 435.809 971.365 C 438.703 972.183 440.387 975.197 439.569 978.09 C 438.75 980.984 435.737 982.668 432.843 981.85 C 429.95 981.031 428.265 978.018 429.084 975.124 Z " fill="rgb(255,255,255)"/><path d=" M 431.308 967.261 C 432.127 964.367 435.14 962.683 438.034 963.501 C 440.927 964.319 442.612 967.333 441.793 970.226 C 440.975 973.12 437.961 974.804 435.068 973.986 C 432.174 973.168 430.49 970.154 431.308 967.261 Z " fill="rgb(255,255,255)"/><path d=" M 424.203 969.026 C 425.022 966.132 428.035 964.447 430.929 965.266 C 433.822 966.084 435.507 969.098 434.688 971.991 C 433.87 974.885 430.856 976.569 427.963 975.751 C 425.07 974.933 423.385 971.919 424.203 969.026 Z " fill="rgb(227,255,13)"/></g></g><g><g><rect x="91.214" y="943.956" width="3.571" height="64.286" transform="matrix(1,0,0,1,0,0)" fill="rgb(107,165,19)"/><circle vector-effect="non-scaling-stroke" cx="89.1538461538457" cy="917.6677056044875" r="11.538461538461434" fill="rgb(238,66,66)"/><circle vector-effect="non-scaling-stroke" cx="79.53846153846098" cy="933.9092709455454" r="11.538461538461434" fill="rgb(238,66,66)"/><circle vector-effect="non-scaling-stroke" cx="91.07692307692244" cy="945.4477324840076" r="11.538461538461434" fill="rgb(238,66,66)"/><circle vector-effect="non-scaling-stroke" cx="106.46153846153805" cy="943.5246555609306" r="11.538461538461434" fill="rgb(238,66,66)"/><circle vector-effect="non-scaling-stroke" cx="106.46153846153805" cy="926.2169632532386" r="11.538461538461434" fill="rgb(238,66,66)"/><circle vector-effect="non-scaling-stroke" cx="92.99999999999977" cy="933.9092709455454" r="11.538461538461434" fill="rgb(227,255,13)"/><rect x="98.3" y="978.231" width="1.686" height="30.354" transform="matrix(0.962,0.272,-0.272,0.962,274.132,10.52)" fill="rgb(107,165,19)"/><path d=" M 99.663 964.883 C 100.481 961.989 103.495 960.305 106.388 961.123 C 109.282 961.941 110.966 964.955 110.148 967.848 C 109.329 970.742 106.316 972.426 103.422 971.608 C 100.529 970.79 98.844 967.776 99.663 964.883 Z " fill="rgb(238,66,66)"/><path d=" M 93.207 971.026 C 94.025 968.133 97.039 966.448 99.932 967.267 C 102.826 968.085 104.51 971.099 103.692 973.992 C 102.873 976.885 99.86 978.57 96.966 977.752 C 94.073 976.933 92.388 973.92 93.207 971.026 Z " fill="rgb(238,66,66)"/><path d=" M 96.966 977.752 C 97.785 974.858 100.798 973.174 103.692 973.992 C 106.585 974.81 108.27 977.824 107.451 980.717 C 106.633 983.611 103.619 985.295 100.726 984.477 C 97.833 983.659 96.148 980.645 96.966 977.752 Z " fill="rgb(238,66,66)"/><path d=" M 104.204 978.855 C 105.022 975.962 108.036 974.277 110.929 975.095 C 113.822 975.914 115.507 978.927 114.689 981.821 C 113.87 984.714 110.857 986.399 107.963 985.581 C 105.07 984.762 103.385 981.749 104.204 978.855 Z " fill="rgb(238,66,66)"/><path d=" M 106.428 970.991 C 107.246 968.098 110.26 966.413 113.153 967.232 C 116.047 968.05 117.731 971.064 116.913 973.957 C 116.094 976.851 113.081 978.535 110.188 977.717 C 107.294 976.898 105.609 973.885 106.428 970.991 Z " fill="rgb(238,66,66)"/><path d=" M 99.323 972.756 C 100.141 969.863 103.155 968.178 106.048 968.997 C 108.942 969.815 110.627 972.829 109.808 975.722 C 108.99 978.616 105.976 980.3 103.083 979.482 C 100.189 978.663 98.505 975.65 99.323 972.756 Z " fill="rgb(227,255,13)"/><rect x="79.469" y="968.357" width="2.303" height="41.457" transform="matrix(0.835,-0.551,0.551,0.835,-531.504,208.001)" fill="rgb(107,165,19)"/><path d=" M 68.144 952.171 C 65.882 948.743 61.262 947.797 57.834 950.059 C 54.407 952.322 53.461 956.941 55.723 960.369 C 57.985 963.796 62.605 964.742 66.032 962.48 C 69.46 960.218 70.406 955.598 68.144 952.171 Z " fill="rgb(238,66,66)"/><path d=" M 79.089 957.497 C 76.826 954.069 72.207 953.123 68.779 955.385 C 65.352 957.648 64.406 962.267 66.668 965.695 C 68.93 969.122 73.55 970.068 76.977 967.806 C 80.405 965.544 81.351 960.924 79.089 957.497 Z " fill="rgb(238,66,66)"/><path d=" M 76.977 967.806 C 74.715 964.378 70.096 963.432 66.668 965.695 C 63.24 967.957 62.294 972.576 64.557 976.004 C 66.819 979.431 71.438 980.378 74.866 978.115 C 78.293 975.853 79.24 971.234 76.977 967.806 Z " fill="rgb(238,66,66)"/><path d=" M 68.014 972.236 C 65.751 968.809 61.132 967.862 57.704 970.125 C 54.277 972.387 53.331 977.006 55.593 980.434 C 57.855 983.862 62.475 984.808 65.902 982.545 C 69.33 980.283 70.276 975.664 68.014 972.236 Z " fill="rgb(238,66,66)"/><path d=" M 61.865 962.921 C 59.603 959.493 54.984 958.547 51.556 960.809 C 48.128 963.071 47.182 967.691 49.445 971.119 C 51.707 974.546 56.326 975.492 59.754 973.23 C 63.181 970.968 64.128 966.348 61.865 962.921 Z " fill="rgb(238,66,66)"/><path d=" M 71.843 962.279 C 69.581 958.851 64.962 957.905 61.534 960.167 C 58.106 962.43 57.16 967.049 59.423 970.477 C 61.685 973.904 66.304 974.85 69.732 972.588 C 73.159 970.326 74.106 965.706 71.843 962.279 Z " fill="rgb(227,255,13)"/></g></g><g><g><path d=" M 286.29 1001.864 C 290.682 994.324 293.186 985.558 293.186 976.211 C 293.186 947.895 270.198 924.906 241.88 924.906 C 213.564 924.906 190.575 947.895 190.575 976.211 C 190.575 985.558 193.08 994.324 197.472 1001.864 L 286.29 1001.864 L 286.29 1001.864 L 286.29 1001.864 Z " fill="rgb(108,165,26)"/><path d=" M 343.34 1001.864 C 345.061 997.416 346 992.581 346 987.529 C 346 965.458 328.082 947.541 306.012 947.541 C 283.943 947.541 266.024 965.458 266.024 987.529 C 266.024 992.581 266.964 997.416 268.686 1001.864 L 343.34 1001.864 L 343.34 1001.864 L 343.34 1001.864 Z " fill="rgb(78,134,1)"/><circle vector-effect="non-scaling-stroke" cx="215.45508459534796" cy="950.4525338808064" r="7.544915404651647" fill="rgb(130,189,48)"/></g><g><circle vector-effect="non-scaling-stroke" cx="210.9230769230765" cy="971.1383877069239" r="3.2307692307692264" fill="rgb(255,255,255)"/><circle vector-effect="non-scaling-stroke" cx="208.23076923076874" cy="975.68602600242" r="3.2307692307692264" fill="rgb(255,255,255)"/><circle vector-effect="non-scaling-stroke" cx="211.46153846153803" cy="978.9167952331894" r="3.2307692307692264" fill="rgb(255,255,255)"/><circle vector-effect="non-scaling-stroke" cx="215.76923076923032" cy="978.3783336947279" r="3.2307692307692264" fill="rgb(255,255,255)"/><circle vector-effect="non-scaling-stroke" cx="215.76923076923032" cy="973.5321798485738" r="3.2307692307692264" fill="rgb(255,255,255)"/><circle vector-effect="non-scaling-stroke" cx="211.99999999999957" cy="975.68602600242" r="3.2307692307692264" fill="rgb(227,255,13)"/></g><g><circle vector-effect="non-scaling-stroke" cx="258.92307692307645" cy="939.1383877069237" r="3.2307692307692264" fill="rgb(255,255,255)"/><circle vector-effect="non-scaling-stroke" cx="256.2307692307687" cy="943.6860260024199" r="3.2307692307692264" fill="rgb(255,255,255)"/><circle vector-effect="non-scaling-stroke" cx="259.461538461538" cy="946.9167952331892" r="3.2307692307692264" fill="rgb(255,255,255)"/><circle vector-effect="non-scaling-stroke" cx="263.7692307692303" cy="946.3783336947278" r="3.2307692307692264" fill="rgb(255,255,255)"/><circle vector-effect="non-scaling-stroke" cx="263.7692307692303" cy="941.532179848574" r="3.2307692307692264" fill="rgb(255,255,255)"/><circle vector-effect="non-scaling-stroke" cx="259.9999999999995" cy="943.6860260024199" r="3.2307692307692264" fill="rgb(227,255,13)"/></g><g><circle vector-effect="non-scaling-stroke" cx="258.92307692307645" cy="939.1383877069237" r="3.2307692307692264" fill="rgb(255,255,255)"/><circle vector-effect="non-scaling-stroke" cx="256.2307692307687" cy="943.6860260024199" r="3.2307692307692264" fill="rgb(255,255,255)"/><circle vector-effect="non-scaling-stroke" cx="259.461538461538" cy="946.9167952331892" r="3.2307692307692264" fill="rgb(255,255,255)"/><circle vector-effect="non-scaling-stroke" cx="263.7692307692303" cy="946.3783336947278" r="3.2307692307692264" fill="rgb(255,255,255)"/><circle vector-effect="non-scaling-stroke" cx="263.7692307692303" cy="941.532179848574" r="3.2307692307692264" fill="rgb(255,255,255)"/><circle vector-effect="non-scaling-stroke" cx="259.9999999999995" cy="943.6860260024199" r="3.2307692307692264" fill="rgb(227,255,13)"/></g><g><circle vector-effect="non-scaling-stroke" cx="251.92307692307645" cy="967.8984417191198" r="3.2307692307692264" fill="rgb(255,255,255)"/><circle vector-effect="non-scaling-stroke" cx="249.23076923076871" cy="972.446080014616" r="3.2307692307692264" fill="rgb(255,255,255)"/><circle vector-effect="non-scaling-stroke" cx="252.461538461538" cy="975.6768492453854" r="3.2307692307692264" fill="rgb(255,255,255)"/><circle vector-effect="non-scaling-stroke" cx="256.7692307692302" cy="975.1383877069236" r="3.2307692307692264" fill="rgb(255,255,255)"/><circle vector-effect="non-scaling-stroke" cx="256.7692307692302" cy="970.2922338607696" r="3.2307692307692264" fill="rgb(255,255,255)"/><circle vector-effect="non-scaling-stroke" cx="252.99999999999955" cy="972.446080014616" r="3.2307692307692264" fill="rgb(227,255,13)"/></g><g><circle vector-effect="non-scaling-stroke" cx="230.92307692307648" cy="947.8984417191197" r="3.2307692307692264" fill="rgb(255,255,255)"/><circle vector-effect="non-scaling-stroke" cx="228.23076923076871" cy="952.446080014616" r="3.2307692307692264" fill="rgb(255,255,255)"/><circle vector-effect="non-scaling-stroke" cx="231.46153846153803" cy="955.6768492453851" r="3.2307692307692264" fill="rgb(255,255,255)"/><circle vector-effect="non-scaling-stroke" cx="235.76923076923032" cy="955.1383877069236" r="3.2307692307692264" fill="rgb(255,255,255)"/><circle vector-effect="non-scaling-stroke" cx="235.76923076923032" cy="950.2922338607696" r="3.2307692307692264" fill="rgb(255,255,255)"/><circle vector-effect="non-scaling-stroke" cx="231.9999999999995" cy="952.446080014616" r="3.2307692307692264" fill="rgb(227,255,13)"/></g></g></g></svg>